<svg width="24" height="24" viewBox="0 0 24 24" fill="none" xmlns="http://www.w3.org/2000/svg">
<path d="M3 11C3 9.89543 3.89543 9 5 9H13C14.1046 9 15 9.89543 15 11V19C15 20.1046 14.1046 21 13 21H5C3.89543 21 3 20.1046 3 19V11Z" stroke="#B4A2B4" stroke-width="2" stroke-miterlimit="10" stroke-linecap="square"/>
<path d="M5 5C4.44772 5 4 5.44772 4 6C4 6.55228 4.44772 7 5 7V5ZM17 20C17 20.5523 17.4477 21 18 21C18.5523 21 19 20.5523 19 20H17ZM5 7H16V5H5V7ZM17 8V20H19V8H17ZM16 7C16.5523 7 17 7.44772 17 8H19C19 6.34315 17.6569 5 16 5V7Z" fill="#B4A2B4"/>
<path d="M9 2C8.44772 2 8 2.44772 8 3C8 3.55228 8.44772 4 9 4V2ZM20 17C20 17.5523 20.4477 18 21 18C21.5523 18 22 17.5523 22 17H20ZM9 4H19V2H9V4ZM20 5V17H22V5H20ZM19 4C19.5523 4 20 4.44772 20 5H22C22 3.34315 20.6569 2 19 2V4Z" fill="#B4A2B4"/>
</svg>
