<?xml version="1.0" encoding="UTF-8"?>
<svg width="24px" height="24px" viewBox="0 0 24 24" version="1.1" xmlns="http://www.w3.org/2000/svg" xmlns:xlink="http://www.w3.org/1999/xlink">
    <!-- Generator: sketchtool 50.2 (55047) - http://www.bohemiancoding.com/sketch -->
    <title>6A842979-640A-458B-B798-6C7AB7DF4D5C</title>
    <desc>Created with sketchtool.</desc>
    <defs></defs>
    <g id="Component" stroke="none" stroke-width="1" fill="none" fill-rule="evenodd">
        <g id="ðŸ–¥-Icons" transform="translate(-310.000000, -304.000000)" fill="#B4A2B4">
            <g id="Sidebar">
                <g id="icon-report_export" transform="translate(310.000000, 304.000000)">
                    <g id="âš›ï¸/icon/24/report">
                        <g id="24px_chart-bar-33" transform="translate(3.000000, 3.000000)">
                            <path d="M1,13 L3,13 C3.55228475,13 4,13.4477153 4,14 L4,19 L0,19 L0,14 C-6.76353751e-17,13.4477153 0.44771525,13 1,13 Z" id="Rectangle"></path>
                            <path d="M8,11 L10,11 C10.5522847,11 11,11.4477153 11,12 L11,19 L7,19 L7,12 C7,11.4477153 7.44771525,11 8,11 Z" id="Rectangle"></path>
                            <path d="M15,9 L17,9 C17.5522847,9 18,9.44771525 18,10 L18,19 L14,19 L14,10 C14,9.44771525 14.4477153,9 15,9 Z" id="Rectangle"></path>
                            <polygon id="Shape" fill-rule="nonzero" points="5.99914551 6 1 10 1 8 5.99914551 4.00115967 9 7 15 1.00463867 16 2 9 9"></polygon>
                            <path d="M15,2 L12,2 C11.4477153,2 11,1.55228475 11,1 L11,1 C11,0.44771525 11.4477153,1.01453063e-16 12,0 L17,0 L17,5 C17,5.55228475 16.5522847,6 16,6 L16,6 C15.4477153,6 15,5.55228475 15,5 L15,2 Z" id="Shape" fill-rule="nonzero"></path>
                        </g>
                    </g>
                </g>
            </g>
        </g>
    </g>
</svg>