<svg width="24" height="24" viewBox="0 0 24 24" fill="none" xmlns="http://www.w3.org/2000/svg">
<path fill-rule="evenodd" clip-rule="evenodd" d="M10 16H4.72076C4.29033 16 3.90819 16.2754 3.77208 16.6838L2 22H12L10 16Z" stroke="#B4A2B4" stroke-width="1.5" stroke-linecap="square"/>
<path fill-rule="evenodd" clip-rule="evenodd" d="M19.2792 16H14L12 22H22L20.2279 16.6838C20.0918 16.2754 19.7097 16 19.2792 16Z" stroke="#B4A2B4" stroke-width="1.5" stroke-linecap="square"/>
<path fill-rule="evenodd" clip-rule="evenodd" d="M14.2792 10H9.72076C9.29033 10 8.90819 10.2754 8.77208 10.6838L7 16H17L15.2279 10.6838C15.0918 10.2754 14.7097 10 14.2792 10Z" stroke="#B4A2B4" stroke-width="1.5" stroke-linecap="square"/>
<path d="M3 14C2.44772 14 2 13.5523 2 13C2 12.4477 2.44772 12 3 12H4C4.55228 12 5 12.4477 5 13C5 13.5523 4.55228 14 4 14H3Z" fill="#B4A2B4"/>
<path d="M3.49309 5.90706C3.10256 5.51653 3.10256 4.88337 3.49309 4.49284C3.88361 4.10232 4.51678 4.10232 4.9073 4.49284L6.3003 5.88584C6.69083 6.27637 6.69083 6.90953 6.3003 7.30006C5.90978 7.69058 5.27661 7.69058 4.88609 7.30006L3.49309 5.90706Z" fill="#B4A2B4"/>
<path d="M11 3C11 2.44772 11.4477 2 12 2C12.5523 2 13 2.44772 13 3V6C13 6.55228 12.5523 7 12 7C11.4477 7 11 6.55228 11 6V3Z" fill="#B4A2B4"/>
<path d="M19.0931 4.49284C19.4836 4.10232 20.1168 4.10232 20.5073 4.49284C20.8979 4.88337 20.8979 5.51653 20.5073 5.90706L19.1143 7.30006C18.7238 7.69058 18.0906 7.69058 17.7001 7.30006C17.3096 6.90953 17.3096 6.27637 17.7001 5.88584L19.0931 4.49284Z" fill="#B4A2B4"/>
<path d="M21 12C21.5523 12 22 12.4477 22 13C22 13.5523 21.5523 14 21 14H20C19.4477 14 19 13.5523 19 13C19 12.4477 19.4477 12 20 12H21Z" fill="#B4A2B4"/>
</svg>
