<svg width="24" height="24" viewBox="0 0 24 24" fill="none" xmlns="http://www.w3.org/2000/svg">
<path d="M17 18H19" stroke="#B4A2B4" stroke-width="1.5" stroke-linecap="round"/>
<path d="M5 18H7" stroke="#B4A2B4" stroke-width="1.5" stroke-linecap="round"/>
<path d="M14 16H10C9.44772 16 9 16.4477 9 17V19C9 19.5523 9.44772 20 10 20H14C14.5523 20 15 19.5523 15 19V17C15 16.4477 14.5523 16 14 16Z" fill="#B4A2B4"/>
<path d="M13 15H11V16H13V15Z" fill="#B4A2B4"/>
<path d="M15 8H9V12H15V8Z" fill="#B4A2B4"/>
<path d="M5 4V8" stroke="#B4A2B4" stroke-width="1.5" stroke-linecap="round"/>
<path d="M19 4V8" stroke="#B4A2B4" stroke-width="1.5" stroke-linecap="round"/>
<path d="M16 5H22" stroke="#B4A2B4" stroke-width="2" stroke-linecap="round"/>
<path d="M2 5H8" stroke="#B4A2B4" stroke-width="2" stroke-linecap="round"/>
<path d="M4 8H20" stroke="#B4A2B4" stroke-width="2" stroke-linecap="round"/>
<path d="M5 20V15C5 13.3431 6.34315 12 8 12H16.3132C17.7971 12 19 13.2029 19 14.6868V20" stroke="#B4A2B4" stroke-width="2" stroke-linecap="round"/>
</svg>
