<?xml version="1.0" encoding="UTF-8"?>
<svg width="24px" height="24px" viewBox="0 0 24 24" version="1.1" xmlns="http://www.w3.org/2000/svg" xmlns:xlink="http://www.w3.org/1999/xlink">
    <!-- Generator: sketchtool 50.2 (55047) - http://www.bohemiancoding.com/sketch -->
    <title>AD01A44F-8D82-4C0D-863E-6583370FC9C3</title>
    <desc>Created with sketchtool.</desc>
    <defs></defs>
    <g id="Component" stroke="none" stroke-width="1" fill="none" fill-rule="evenodd">
        <g id="ðŸ–¥-Icons" transform="translate(-112.000000, -176.000000)" fill="#B4A2B4">
            <g id="Sidebar">
                <g id="icon-kios_export" transform="translate(112.000000, 176.000000)">
                    <g id="âš›ï¸/icon/24/kios">
                        <g id="24px_store" transform="translate(3.000000, 3.000000)">
                            <polygon id="Shape" fill-rule="nonzero" points="16 3 16 5 2 5 2 3"></polygon>
                            <path d="M8,14 L8,18 L2,18 L2,8 L4,8 L4,16 L6,16 L6,13 C6,12.4477153 6.44771525,12 7,12 L11,12 C11.5522847,12 12,12.4477153 12,13 L12,16 L14,16 L14,8 L16,8 L16,18 L10,18 L10,14 L8,14 Z" id="Shape" fill-rule="nonzero"></path>
                            <path d="M14,4 L14,2 L4,2 L4,4 L2,7 L16,7 L14,4 Z M16,4 L18,7 L18,9 L0,9 L0,7 L2,4 L2,1 C2,0.44771525 2.44771525,1.01453063e-16 3,0 L15,0 C15.5522847,-1.01453063e-16 16,0.44771525 16,1 L16,4 Z" id="Shape" fill-rule="nonzero"></path>
                        </g>
                    </g>
                </g>
            </g>
        </g>
    </g>
</svg>