<?xml version="1.0" encoding="UTF-8"?>
<svg width="24px" height="24px" viewBox="0 0 24 24" version="1.1" xmlns="http://www.w3.org/2000/svg" xmlns:xlink="http://www.w3.org/1999/xlink">
    <!-- Generator: sketchtool 50.2 (55047) - http://www.bohemiancoding.com/sketch -->
    <title>A3C8B803-2C3C-4EEB-8427-7EC40BE4B92E</title>
    <desc>Created with sketchtool.</desc>
    <defs></defs>
    <g id="Component" stroke="none" stroke-width="1" fill="none" fill-rule="evenodd">
        <g id="ðŸ–¥-Icons" transform="translate(-244.000000, -304.000000)" fill="#B4A2B4">
            <g id="Sidebar">
                <g id="icon-reference_export" transform="translate(244.000000, 304.000000)">
                    <g id="âš›ï¸/icon/24/reference">
                        <g id="Group" transform="translate(4.000000, 3.000000)">
                            <path d="M11.9958496,18 L10,18 L10,13 C10,12.4477153 10.4477153,12 11,12 L16,12 L16,14 L11.9958496,18.0048828 L11.9958496,18 Z" id="Combined-Shape" fill-rule="nonzero"></path>
                            <path d="M11,16 L14,13 L14,2 L2,2 L2,16 L11,16 Z M0,17 L0,1 C-6.76353751e-17,0.44771525 0.44771525,1.01453063e-16 1,0 L15,0 C15.5522847,-1.01453063e-16 16,0.44771525 16,1 L16,13 L11,18 L1,18 C0.44771525,18 6.76353751e-17,17.5522847 0,17 Z" id="Shape" fill-rule="nonzero"></path>
                            <path d="M4,5 C4,4.44771525 4.44771525,4 5,4 L11,4 C11.5522847,4 12,4.44771525 12,5 C12,5.55228475 11.5522847,6 11,6 L5,6 C4.44771525,6 4,5.55228475 4,5 Z M4,9 C4,8.44771525 4.44771525,8 5,8 L11,8 C11.5522847,8 12,8.44771525 12,9 C12,9.55228475 11.5522847,10 11,10 L5,10 C4.44771525,10 4,9.55228475 4,9 Z M4,13 C4,12.4477153 4.44771525,12 5,12 L7,12 C7.55228475,12 8,12.4477153 8,13 C8,13.5522847 7.55228475,14 7,14 L5,14 C4.44771525,14 4,13.5522847 4,13 Z" id="Combined-Shape" fill-rule="nonzero"></path>
                        </g>
                    </g>
                </g>
            </g>
        </g>
    </g>
</svg>