<?xml version="1.0" encoding="UTF-8"?>
<svg width="24px" height="24px" viewBox="0 0 24 24" version="1.1" xmlns="http://www.w3.org/2000/svg" xmlns:xlink="http://www.w3.org/1999/xlink">
    <!-- Generator: sketchtool 50.2 (55047) - http://www.bohemiancoding.com/sketch -->
    <title>F0AFC2E1-BF31-41AE-A112-926788CCF2BC</title>
    <desc>Created with sketchtool.</desc>
    <defs></defs>
    <g id="Component" stroke="none" stroke-width="1" fill="none" fill-rule="evenodd">
        <g id="ðŸ–¥-Icons" transform="translate(-310.000000, -240.000000)" fill="#B4A2B4">
            <g id="Sidebar">
                <g id="icon-poin-size-game_export" transform="translate(310.000000, 240.000000)">
                    <g id="âš›ï¸/icon/24/poin-size-game">
                        <g id="16px_dice" transform="translate(3.000000, 3.000000)">
                            <path d="M17,0 L6,0 C5.6625,0 5.4375,0.1125 5.2125,0.3375 L0.3375,5.20944824 C0.1125,5.43444824 0,5.65944824 0,5.99694824 L0,16.9962769 C0,17.6712769 0.323352051,18 0.998352051,18 L12.0040894,18 C12.3415894,18 12.775,17.725 13,17.5 L17.6625,12.7874084 C17.8875,12.5624084 18,12.3374084 18,11.9999084 L18,1 C18,0.325 17.675,0 17,0 Z M6.00247192,2.00753784 L15.0065613,2 L12.0049133,5.00457764 L3,5.00457764 L6.00247192,2.00753784 Z M2,7 L11.0064697,7 L11.0064697,16.0024414 L2,16.0024414 L2,7 Z M13,6.99780273 L15.9921875,4 L15.9921875,11.9977417 L13,14.9940491 L13,6.99780273 Z" id="Shape" fill-rule="nonzero"></path>
                            <path d="M4,10 C3.44771525,10 3,9.55228475 3,9 C3,8.44771525 3.44771525,8 4,8 C4.55228475,8 5,8.44771525 5,9 C5,9.55228475 4.55228475,10 4,10 Z M9,10 C8.44771525,10 8,9.55228475 8,9 C8,8.44771525 8.44771525,8 9,8 C9.55228475,8 10,8.44771525 10,9 C10,9.55228475 9.55228475,10 9,10 Z M4,15 C3.44771525,15 3,14.5522847 3,14 C3,13.4477153 3.44771525,13 4,13 C4.55228475,13 5,13.4477153 5,14 C5,14.5522847 4.55228475,15 4,15 Z M9,15 C8.44771525,15 8,14.5522847 8,14 C8,13.4477153 8.44771525,13 9,13 C9.55228475,13 10,13.4477153 10,14 C10,14.5522847 9.55228475,15 9,15 Z" id="Combined-Shape" fill-rule="nonzero"></path>
                        </g>
                    </g>
                </g>
            </g>
        </g>
    </g>
</svg>