<svg width="24" height="24" viewBox="0 0 24 24" fill="none" xmlns="http://www.w3.org/2000/svg">
<path d="M4 5C4 4.44772 4.44772 4 5 4C5.55228 4 6 4.44772 6 5V19C6 19.5523 5.55228 20 5 20C4.44772 20 4 19.5523 4 19V5Z" fill="#B4A2B4"/>
<path d="M18 5C18 4.44772 18.4477 4 19 4C19.5523 4 20 4.44772 20 5V19C20 19.5523 19.5523 20 19 20C18.4477 20 18 19.5523 18 19V5Z" fill="#B4A2B4"/>
<path d="M7 5C7 4.44771 7.44772 4 8 4C8.55228 4 9 4.44772 9 5V14C9 14.5523 8.55228 15 8 15C7.44772 15 7 14.5523 7 14V5Z" fill="#B4A2B4"/>
<path d="M15 5C15 4.44771 15.4477 4 16 4C16.5523 4 17 4.44772 17 5V14C17 14.5523 16.5523 15 16 15C15.4477 15 15 14.5523 15 14V5Z" fill="#B4A2B4"/>
<path d="M14 14C14 14.5523 13.5523 15 13 15H11C10.4477 15 10 14.5523 10 14V5C10 4.44771 10.4477 4 11 4H13C13.5523 4 14 4.44772 14 5V14Z" fill="#B4A2B4"/>
</svg>
