<svg width="24" height="24" viewBox="0 0 24 24" fill="none" xmlns="http://www.w3.org/2000/svg">
<path d="M19.6667 7H14.3333C13.5333 7 13 7.4 13 8C13 8.6 13.5333 9 14.3333 9H19.6667C20.4667 9 21 8.6 21 8C21 7.4 20.4667 7 19.6667 7Z" fill="#B4A2B4"/>
<path d="M8 5C6.7 5 5.6 5.9 5.2 7H4C3.4 7 3 7.4 3 8C3 8.6 3.4 9 4 9H5.2C5.6 10.1 6.7 11 8 11C9.7 11 11 9.7 11 8C11 6.3 9.7 5 8 5Z" fill="#B4A2B4"/>
<path d="M4.33333 17H9.66667C10.4667 17 11 16.6 11 16C11 15.4 10.4667 15 9.66667 15H4.33333C3.53333 15 3 15.4 3 16C3 16.6 3.53333 17 4.33333 17Z" fill="#B4A2B4"/>
<path d="M20 15H18.8C18.4 13.8 17.3 13 16 13C14.3 13 13 14.3 13 16C13 17.7 14.3 19 16 19C17.3 19 18.4 18.1 18.8 17H20C20.6 17 21 16.6 21 16C21 15.4 20.6 15 20 15Z" fill="#B4A2B4"/>
</svg>
