<?xml version="1.0" encoding="UTF-8"?>
<svg width="24px" height="24px" viewBox="0 0 24 24" version="1.1" xmlns="http://www.w3.org/2000/svg" xmlns:xlink="http://www.w3.org/1999/xlink">
    <!-- Generator: sketchtool 50.2 (55047) - http://www.bohemiancoding.com/sketch -->
    <title>6C2F8DD2-7E4D-4BFF-B06F-E45105139DBE</title>
    <desc>Created with sketchtool.</desc>
    <defs></defs>
    <g id="Component" stroke="none" stroke-width="1" fill="none" fill-rule="evenodd">
        <g id="ðŸ–¥-Icons" transform="translate(-46.000000, -432.000000)" fill="#B4A2B4">
            <g id="Sidebar">
                <g id="icon-transfer-pulsa_export" transform="translate(46.000000, 432.000000)">
                    <g id="âš›ï¸/icon/24/transfer-pulsa">
                        <g id="24px_sync" transform="translate(2.000000, 3.000000)">
                            <path d="M13,2 L12,2 L12,0 L13,0 C15.7922847,0 18,2.20771525 18,5 L18,6 L16,6 L16,5 C16,3.31228475 14.6877153,2 13,2 Z" id="Shape" fill-rule="nonzero"></path>
                            <path d="M2,13 L2,12 L4,12 L4,13 C4,14.6877153 5.31228475,16 7,16 L8,16 L8,18 L7,18 C4.20771525,18 2,15.7922847 2,13 Z" id="Shape" fill-rule="nonzero"></path>
                            <path d="M2,2 L2,9 L7,9 L7,2 L2,2 Z M9,1 L9,10 C9,10.5522847 8.55228475,11 8,11 L1,11 C0.44771525,11 6.76353751e-17,10.5522847 0,10 L0,1 C-6.76353751e-17,0.44771525 0.44771525,1.01453063e-16 1,0 L8,0 C8.55228475,-1.01453063e-16 9,0.44771525 9,1 Z" id="Rectangle" fill-rule="nonzero"></path>
                            <path d="M13,9 L13,16 L18,16 L18,9 L13,9 Z M20,8 L20,17 C20,17.5522847 19.5522847,18 19,18 L12,18 C11.4477153,18 11,17.5522847 11,17 L11,8 C11,7.44771525 11.4477153,7 12,7 L19,7 C19.5522847,7 20,7.44771525 20,8 Z" id="Rectangle" fill-rule="nonzero"></path>
                            <path d="M15,15.5 C14.7238576,15.5 14.5,15.2761424 14.5,15 C14.5,14.7238576 14.7238576,14.5 15,14.5 L16,14.5 C16.2761424,14.5 16.5,14.7238576 16.5,15 C16.5,15.2761424 16.2761424,15.5 16,15.5 L15,15.5 Z" id="Shape" fill-rule="nonzero"></path>
                            <path d="M4,8.5 C3.72385763,8.5 3.5,8.27614237 3.5,8 C3.5,7.72385763 3.72385763,7.5 4,7.5 L5,7.5 C5.27614237,7.5 5.5,7.72385763 5.5,8 C5.5,8.27614237 5.27614237,8.5 5,8.5 L4,8.5 Z" id="Shape" fill-rule="nonzero"></path>
                        </g>
                    </g>
                </g>
            </g>
        </g>
    </g>
</svg>