<svg width="24" height="24" viewBox="0 0 24 24" fill="none" xmlns="http://www.w3.org/2000/svg">
<path d="M18.9 4C18.6 4 10.5 4.8 7.3 8C4.5 10.8 5.1 14.5 6.1 16.5L4.3 18.3C3.9 18.7 3.9 19.3 4.3 19.7C4.5 19.9 4.7 20 5 20C5.3 20 5.5 19.9 5.7 19.7L7.5 17.9C8.4 18.3 9.7 18.7 11.1 18.7C12.7 18.7 14.4 18.2 16 16.7C19.4 13.3 20 5.4 20 5.1C20 4.8 19.9 4.5 19.7 4.3C19.5 4.1 19.2 4 18.9 4V4ZM14.6 15.3C12.7 17.2 10.4 16.8 9.1 16.4L13.4 12C13.8 11.6 13.8 11 13.4 10.6C13 10.2 12.4 10.2 12 10.6L7.6 15C7.2 13.6 6.8 11.3 8.7 9.4C10.6 7.5 15.2 6.5 17.9 6.1C17.6 8.4 16.8 13.1 14.6 15.3Z" fill="#B4A2B4"/>
</svg>
