<svg width="24" height="24" viewBox="0 0 24 24" fill="none" xmlns="http://www.w3.org/2000/svg">
<path d="M16.999 11C18.1036 11 18.999 10.1046 18.999 9C18.999 7.89543 18.1036 7 16.999 7C15.8945 7 14.999 7.89543 14.999 9C14.999 10.1046 15.8945 11 16.999 11Z" stroke="#B4A2B4" stroke-width="2" stroke-miterlimit="10" stroke-linecap="square"/>
<path d="M10 7C11.1046 7 12 6.10457 12 5C12 3.89543 11.1046 3 10 3C8.89543 3 8 3.89543 8 5C8 6.10457 8.89543 7 10 7Z" stroke="#B4A2B4" stroke-width="2" stroke-miterlimit="10" stroke-linecap="square"/>
<path d="M13.6937 15.3567H18.4286C20.8431 15.3567 21 17.035 21 17.035L10.9157 20.8322C10.5821 20.9578 10.2254 21.014 9.86843 20.9971C9.51143 20.9802 9.16194 20.8906 8.84229 20.734L3 17.8742V12H3.85714C4.80429 12 7.06229 12.6892 8 14H10.5714C11.4807 14 12.4957 14.032 13.1387 14.6615C13.7816 15.291 14 16.1447 14 17.035H8.14286" stroke="#B4A2B4" stroke-width="2" stroke-miterlimit="10"/>
</svg>
