<?xml version="1.0" encoding="UTF-8"?>
<svg width="24px" height="24px" viewBox="0 0 24 24" version="1.1" xmlns="http://www.w3.org/2000/svg" xmlns:xlink="http://www.w3.org/1999/xlink">
    <!-- Generator: sketchtool 50.2 (55047) - http://www.bohemiancoding.com/sketch -->
    <title>6E3479A1-DBBE-4E75-BE04-CC8949D969EE</title>
    <desc>Created with sketchtool.</desc>
    <defs></defs>
    <g id="Component" stroke="none" stroke-width="1" fill="none" fill-rule="evenodd">
        <g id="ðŸ–¥-Icons" transform="translate(-112.000000, -368.000000)" fill="#B4A2B4">
            <g id="Sidebar">
                <g id="icon-staff_export" transform="translate(112.000000, 368.000000)">
                    <g id="âš›ï¸/icon/24/staff">
                        <g id="24px_contact-89" transform="translate(3.000000, 3.000000)">
                            <polygon id="Shape" fill-rule="nonzero" points="6.90618314 17.4228855 5.09381686 16.5771145 7.69647031 11 10.3035297 11 12.9061831 16.5771145 11.0938169 17.4228855 9.02980364 13 8.97019636 13"></polygon>
                            <path d="M6,5.28571429 C6,8.21600068 7.31479669,10 9,10 C10.6852033,10 12,8.21600068 12,5.28571429 C12,3.45623531 10.640847,2 9,2 C7.35915296,2 6,3.45623531 6,5.28571429 Z M4,5.28571429 C4,2.38132397 6.22256904,5.55111512e-16 9,0 C11.777431,-6.66133815e-16 14,2.38132397 14,5.28571429 C14,9.21145236 11.9448573,12 9,12 C6.05514271,12 4,9.21145236 4,5.28571429 Z" id="Shape" fill-rule="nonzero"></path>
                            <path d="M16,16 L16,14.0223149 C16.0000018,13.8419421 15.8983998,13.6692597 15.7215821,13.5671678 L11.0615821,10.8650893 L12.0648179,9.13491069 L16.7232152,11.8360619 C17.5118593,12.2914042 18.000009,13.1210617 18,14.0223249 L18,18 L0,18 L0,17 L1.66873388e-07,14.0217472 C0.000520553214,13.1209701 0.488341177,12.2918721 1.27518214,11.8369892 L5.93518214,9.13491069 L6.93841786,10.8650893 L2.27729585,13.5678175 C2.10187048,13.6692333 2.00010423,13.8421949 2,14.0223249 L2,16 L16,16 Z" id="Shape" fill-rule="nonzero"></path>
                        </g>
                    </g>
                </g>
            </g>
        </g>
    </g>
</svg>