<?xml version="1.0" encoding="UTF-8"?>
<svg width="24px" height="24px" viewBox="0 0 24 24" version="1.1" xmlns="http://www.w3.org/2000/svg" xmlns:xlink="http://www.w3.org/1999/xlink">
    <!-- Generator: sketchtool 50.2 (55047) - http://www.bohemiancoding.com/sketch -->
    <title>D5E4539A-6684-4790-BBCC-9C3BB9B089A7</title>
    <desc>Created with sketchtool.</desc>
    <defs></defs>
    <g id="Component" stroke="none" stroke-width="1" fill="none" fill-rule="evenodd">
        <g id="ðŸ–¥-Icons" transform="translate(-244.000000, -176.000000)" fill="#B4A2B4">
            <g id="Sidebar">
                <g id="icon-kirim-notifikasi_export" transform="translate(244.000000, 176.000000)">
                    <g id="âš›ï¸/icon/24/kirim-notifikasi">
                        <g id="24px_notification-69" transform="translate(3.000000, 3.000000)">
                            <path d="M5.83020521,12.1893833 L7.52742504,11 L9.65135576,14.3094633 C10.292117,15.3741771 10.0262915,16.7939465 9.04579678,17.5576472 C8.00992532,18.3644805 6.48608589,18.0223087 5.81003289,16.8989041 L3,12.1566868 L4.73756447,11.0326965 L7.54383109,15.768607 C7.59463388,15.8530229 7.76570875,15.8914371 7.82437457,15.8457427 C7.9564701,15.7428543 7.99051261,15.5610339 7.93772987,15.4724568 L5.83020521,12.1893833 Z" id="Shape" fill-rule="nonzero"></path>
                            <path d="M11,5.00317383 L18,0 L18,18 L11,13.0039062 L4,13.0039063 C1.87145497,13.0039063 0,11.1374569 0,9.00109863 C0,6.86510914 1.87106581,5.00317383 4,5.00317383 L11,5.00317383 Z M16,4 L11,7.00317383 L4,7.00317383 C2.97345112,7.00317383 2,7.97187467 2,9.00109863 C2,10.0316865 2.97482714,11.0039063 4,11.0039063 L11,11.0039063 L16,14 L16,4 Z" id="Shape" fill-rule="nonzero"></path>
                        </g>
                    </g>
                </g>
            </g>
        </g>
    </g>
</svg>