<svg width="24" height="24" viewBox="0 0 24 24" fill="none" xmlns="http://www.w3.org/2000/svg">
<path d="M19 7.00003C17.25 7.00003 14.455 5.59203 12.6 4.20003C12.4272 4.06959 12.2165 3.99902 12 3.99902C11.7835 3.99902 11.5728 4.06959 11.4 4.20003C9.545 5.59203 6.75 7.00003 5 7.00003C4.73478 7.00003 4.48043 7.10539 4.29289 7.29292C4.10536 7.48046 4 7.73481 4 8.00003C4 13.584 6.701 17.817 11.606 19.919C11.7305 19.9724 11.8645 19.9999 12 19.9999C12.1355 19.9999 12.2695 19.9724 12.394 19.919C17.299 17.817 20 13.584 20 8.00003C20 7.73481 19.8946 7.48046 19.7071 7.29292C19.5196 7.10539 19.2652 7.00003 19 7.00003ZM12 17.904V12H6.616C6.28509 10.9993 6.08706 9.95937 6.027 8.90703C7.955 8.58203 10.236 7.44503 12 6.23003V12H17.384C16.506 14.634 14.694 16.643 12 17.904Z" fill="#B4A2B4"/>
</svg>
