<svg width="24" height="24" viewBox="0 0 24 24" fill="none" xmlns="http://www.w3.org/2000/svg">
<path d="M12 9V13" stroke="#B4A2B4" stroke-width="2" stroke-miterlimit="10" stroke-linecap="square"/>
<path d="M5 13.0005V11.0005H19V13.0005" stroke="#B4A2B4" stroke-width="2" stroke-miterlimit="10" stroke-linecap="square"/>
<path d="M5 21C6.10457 21 7 20.1046 7 19C7 17.8954 6.10457 17 5 17C3.89543 17 3 17.8954 3 19C3 20.1046 3.89543 21 5 21Z" stroke="#B4A2B4" stroke-width="2" stroke-miterlimit="10" stroke-linecap="square"/>
<path d="M12 21C13.1046 21 14 20.1046 14 19C14 17.8954 13.1046 17 12 17C10.8954 17 10 17.8954 10 19C10 20.1046 10.8954 21 12 21Z" stroke="#B4A2B4" stroke-width="2" stroke-miterlimit="10" stroke-linecap="square"/>
<path d="M19 21C20.1046 21 21 20.1046 21 19C21 17.8954 20.1046 17 19 17C17.8954 17 17 17.8954 17 19C17 20.1046 17.8954 21 19 21Z" stroke="#B4A2B4" stroke-width="2" stroke-miterlimit="10" stroke-linecap="square"/>
<path d="M10 3H14V7H10V3Z" stroke="#B4A2B4" stroke-width="2" stroke-miterlimit="10" stroke-linecap="square"/>
</svg>
