<?xml version="1.0" encoding="UTF-8"?>
<svg width="24px" height="24px" viewBox="0 0 24 24" version="1.1" xmlns="http://www.w3.org/2000/svg" xmlns:xlink="http://www.w3.org/1999/xlink">
    <!-- Generator: sketchtool 51.3 (57544) - http://www.bohemiancoding.com/sketch -->
    <title>5A5D5148-C2C7-4607-86FF-D3C4152C6305</title>
    <desc>Created with sketchtool.</desc>
    <defs></defs>
    <g id="Component" stroke="none" stroke-width="1" fill="none" fill-rule="evenodd">
        <g id="ðŸ–¥-Icons" transform="translate(-178.000000, -432.000000)">
            <g id="Sidebar">
                <g id="icon-kereta" transform="translate(178.000000, 432.000000)">
                    <g id="âš›ï¸/icon/24/kereta">
                        <g id="24px_train" transform="translate(2.000000, 3.000000)">
                            <path d="M14.0909091,13.0909091 L16.5454545,18" id="Shape" stroke="#B4A2B4" stroke-width="2"></path>
                            <path d="M3.45454545,18 L5.90909091,13.0909091" id="Shape" stroke="#B4A2B4" stroke-width="2"></path>
                            <path d="M4,16 L16,16" id="Shape" stroke="#B4A2B4" stroke-width="2"></path>
                            <path d="M1,5 L1,7" id="Shape" stroke="#B4A2B4" stroke-width="2" stroke-linecap="round"></path>
                            <path d="M19,5 L19,7" id="Shape" stroke="#B4A2B4" stroke-width="2" stroke-linecap="round"></path>
                            <path d="M16,13 L4,13 L4,1.625 C4,0.727537282 4.67157288,1.80411242e-16 5.5,0 L14.5,0 C15.3284271,0 16,0.727537282 16,1.625 L16,13 Z" id="Shape" stroke="#B4A2B4" stroke-width="2" stroke-linecap="square"></path>
                            <polygon id="Shape" stroke="#B4A2B4" stroke-width="2" stroke-linecap="round" stroke-linejoin="round" points="7 3 13 3 13 6 7 6"></polygon>
                            <circle id="Oval" fill="#B4A2B4" fill-rule="nonzero" cx="7" cy="10" r="1"></circle>
                            <circle id="Oval" fill="#B4A2B4" fill-rule="nonzero" cx="13" cy="10" r="1"></circle>
                        </g>
                    </g>
                </g>
            </g>
        </g>
    </g>
</svg>