<?xml version="1.0" encoding="UTF-8"?>
<svg width="24px" height="24px" viewBox="0 0 24 24" version="1.1" xmlns="http://www.w3.org/2000/svg" xmlns:xlink="http://www.w3.org/1999/xlink">
    <!-- Generator: sketchtool 50.2 (55047) - http://www.bohemiancoding.com/sketch -->
    <title>5B0AEADE-3F79-470E-B411-D9C3A14EDE20</title>
    <desc>Created with sketchtool.</desc>
    <defs></defs>
    <g id="Component" stroke="none" stroke-width="1" fill="none" fill-rule="evenodd">
        <g id="ðŸ–¥-Icons" transform="translate(-244.000000, -368.000000)" fill="#B4A2B4">
            <g id="Sidebar">
                <g id="icon-transaksi-penjualan-barang_export" transform="translate(244.000000, 368.000000)">
                    <g id="âš›ï¸/icon/24/transaksi-penjualan-barang">
                        <g id="24px_delivery-3" transform="translate(3.000000, 3.000000)">
                            <path d="M2,2 L1,2 C0.44771525,2 6.76353751e-17,1.55228475 0,1 L0,1 C-6.76353751e-17,0.44771525 0.44771525,1.01453063e-16 1,0 L4,0 L4,11 L18,11 L18,13 L2,13 L2,2 Z" id="Shape" fill-rule="nonzero"></path>
                            <path d="M4.5,18 C3.11928813,18 2,16.8807119 2,15.5 C2,14.1192881 3.11928813,13 4.5,13 C5.88071187,13 7,14.1192881 7,15.5 C7,16.8807119 5.88071187,18 4.5,18 Z M4.5,16 C4.77614237,16 5,15.7761424 5,15.5 C5,15.2238576 4.77614237,15 4.5,15 C4.22385763,15 4,15.2238576 4,15.5 C4,15.7761424 4.22385763,16 4.5,16 Z" id="Oval" fill-rule="nonzero"></path>
                            <path d="M15.5,18 C14.1192881,18 13,16.8807119 13,15.5 C13,14.1192881 14.1192881,13 15.5,13 C16.8807119,13 18,14.1192881 18,15.5 C18,16.8807119 16.8807119,18 15.5,18 Z M15.5,16 C15.7761424,16 16,15.7761424 16,15.5 C16,15.2238576 15.7761424,15 15.5,15 C15.2238576,15 15,15.2238576 15,15.5 C15,15.7761424 15.2238576,16 15.5,16 Z" id="Oval" fill-rule="nonzero"></path>
                            <path d="M7,2 L7,8 L16,8 L16,2 L7,2 Z M18,1 L18,10 L5,10 L5,1 C5,0.44771525 5.44771525,1.01453063e-16 6,0 L17,0 C17.5522847,-1.01453063e-16 18,0.44771525 18,1 Z" id="Shape" fill-rule="nonzero"></path>
                            <polygon id="Shape" fill-rule="nonzero" points="5 5 5 3 18 3 18 5"></polygon>
                        </g>
                    </g>
                </g>
            </g>
        </g>
    </g>
</svg>