<svg width="24" height="24" viewBox="0 0 24 24" fill="none" xmlns="http://www.w3.org/2000/svg">
<path d="M12 14C11.2044 14 10.4413 13.705 9.87868 13.1799C9.31607 12.6548 9 11.9426 9 11.2V9.8C9 9.05739 9.31607 8.3452 9.87868 7.8201C10.4413 7.295 11.2044 7 12 7C12.7956 7 13.5587 7.295 14.1213 7.8201C14.6839 8.3452 15 9.05739 15 9.8V11.2C15 11.9426 14.6839 12.6548 14.1213 13.1799C13.5587 13.705 12.7956 14 12 14Z" stroke="#B4A2B4" stroke-width="2" stroke-miterlimit="10" stroke-linecap="square"/>
<path d="M17 19C16.0985 17.7985 14.7299 17 13.2285 17H10.7699C10.051 16.9993 9.34075 17.1775 8.68933 17.5219C8.03791 17.8664 7.46121 18.3688 7 18.9935" stroke="#B4A2B4" stroke-width="2" stroke-miterlimit="10"/>
<path d="M12 20C16.4183 20 20 16.4183 20 12C20 7.58172 16.4183 4 12 4C7.58172 4 4 7.58172 4 12C4 16.4183 7.58172 20 12 20Z" stroke="#B4A2B4" stroke-width="2" stroke-miterlimit="10" stroke-linecap="square"/>
</svg>
