<?xml version="1.0" encoding="UTF-8"?>
<svg width="24px" height="24px" viewBox="0 0 24 24" version="1.1" xmlns="http://www.w3.org/2000/svg" xmlns:xlink="http://www.w3.org/1999/xlink">
    <!-- Generator: sketchtool 51.3 (57544) - http://www.bohemiancoding.com/sketch -->
    <title>7DCFA378-4D56-472D-A8E3-61651026FB01</title>
    <desc>Created with sketchtool.</desc>
    <defs></defs>
    <g id="Component" stroke="none" stroke-width="1" fill="none" fill-rule="evenodd">
        <g id="ðŸ–¥-Icons" transform="translate(-244.000000, -432.000000)">
            <g id="Sidebar">
                <g id="icon-station" transform="translate(244.000000, 432.000000)">
                    <g id="âš›ï¸/icon/24/station">
                        <g id="24px_train" transform="translate(2.000000, 3.000000)">
                            <path d="M1,10 L1,12" id="Shape" stroke="#B4A2B4" stroke-width="2" stroke-linecap="round"></path>
                            <path d="M19,10 L19,12" id="Shape" stroke="#B4A2B4" stroke-width="2" stroke-linecap="round"></path>
                            <path d="M16,16 L4,16 L4,6.375 C4,5.61560847 4.67157288,5 5.5,5 L14.5,5 C15.3284271,5 16,5.61560847 16,6.375 L16,16 Z" id="Shape" stroke="#B4A2B4" stroke-width="2" stroke-linecap="square"></path>
                            <path d="M6,16 L6,18" id="Line-2" stroke="#B4A2B4" stroke-width="2" stroke-linecap="round" fill-rule="nonzero"></path>
                            <path d="M14,16 L14,18" id="Line-2" stroke="#B4A2B4" stroke-width="2" stroke-linecap="round" fill-rule="nonzero"></path>
                            <path d="M4,11 L16,11" id="Line" stroke="#B4A2B4" stroke-width="2" stroke-linecap="square" fill-rule="nonzero"></path>
                            <polyline id="Line-3" stroke="#B4A2B4" stroke-width="2" stroke-linecap="round" fill-rule="nonzero" points="2 2 10 0 17.96875 2"></polyline>
                            <rect id="Rectangle-2" fill="#B4A2B4" fill-rule="nonzero" x="7" y="3" width="6" height="3" rx="1"></rect>
                            <circle id="Oval-2" fill="#B4A2B4" fill-rule="nonzero" cx="10" cy="13.5" r="1"></circle>
                        </g>
                    </g>
                </g>
            </g>
        </g>
    </g>
</svg>