<svg width="24" height="24" viewBox="0 0 24 24" fill="none" xmlns="http://www.w3.org/2000/svg">
<path d="M7 10C8.65685 10 10 8.65685 10 7C10 5.34315 8.65685 4 7 4C5.34315 4 4 5.34315 4 7C4 8.65685 5.34315 10 7 10Z" fill="#B4A2B4"/>
<path d="M17 20C18.6569 20 20 18.6569 20 17C20 15.3431 18.6569 14 17 14C15.3431 14 14 15.3431 14 17C14 18.6569 15.3431 20 17 20Z" fill="#B4A2B4"/>
<path d="M13 16L8 12V15H6V11H4V17H8V20L13 16Z" fill="#B4A2B4"/>
<path d="M16 7V4L11 8L16 12V9H18V13H20V7H16Z" fill="#B4A2B4"/>
</svg>
