<svg width="24" height="24" viewBox="0 0 24 24" fill="none" xmlns="http://www.w3.org/2000/svg">
<path d="M7 11C8.10457 11 9 10.1046 9 9C9 7.89543 8.10457 7 7 7C5.89543 7 5 7.89543 5 9C5 10.1046 5.89543 11 7 11Z" fill="#B4A2B4"/>
<path d="M7 17C8.10457 17 9 16.1046 9 15C9 13.8954 8.10457 13 7 13C5.89543 13 5 13.8954 5 15C5 16.1046 5.89543 17 7 17Z" fill="#B4A2B4"/>
<path d="M4 4C4 3.44772 4.44772 3 5 3H19C19.5523 3 20 3.44772 20 4C20 4.55228 19.5523 5 19 5H5C4.44772 5 4 4.55228 4 4Z" fill="#B4A2B4"/>
<path d="M4 20C4 19.4477 4.44772 19 5 19H19C19.5523 19 20 19.4477 20 20C20 20.5523 19.5523 21 19 21H5C4.44772 21 4 20.5523 4 20Z" fill="#B4A2B4"/>
<path d="M11 15C11 14.4477 11.4477 14 12 14H18C18.5523 14 19 14.4477 19 15C19 15.5523 18.5523 16 18 16H12C11.4477 16 11 15.5523 11 15Z" fill="#B4A2B4"/>
<path d="M11 9C11 8.44772 11.4477 8 12 8H18C18.5523 8 19 8.44772 19 9C19 9.55228 18.5523 10 18 10H12C11.4477 10 11 9.55228 11 9Z" fill="#B4A2B4"/>
</svg>
