<svg width="24" height="24" viewBox="0 0 24 24" fill="none" xmlns="http://www.w3.org/2000/svg">
<path d="M9 14C9 13.4477 9.44772 13 10 13H19C19.5523 13 20 13.4477 20 14C20 14.5523 19.5523 15 19 15H10C9.44771 15 9 14.5523 9 14Z" fill="#B4A2B4"/>
<path d="M4 14C4 13.4477 4.44772 13 5 13H6C6.55228 13 7 13.4477 7 14C7 14.5523 6.55228 15 6 15H5C4.44772 15 4 14.5523 4 14Z" fill="#B4A2B4"/>
<path d="M9 18C9 17.4477 9.44772 17 10 17H14C14.5523 17 15 17.4477 15 18C15 18.5523 14.5523 19 14 19H10C9.44772 19 9 18.5523 9 18Z" fill="#B4A2B4"/>
<path d="M4 18C4 17.4477 4.44772 17 5 17H6C6.55228 17 7 17.4477 7 18C7 18.5523 6.55228 19 6 19H5C4.44772 19 4 18.5523 4 18Z" fill="#B4A2B4"/>
<path d="M9 10C9 9.44772 9.44772 9 10 9H15C15.5523 9 16 9.44772 16 10C16 10.5523 15.5523 11 15 11H10C9.44772 11 9 10.5523 9 10Z" fill="#B4A2B4"/>
<path d="M4 10C4 9.44772 4.44772 9 5 9H6C6.55228 9 7 9.44772 7 10C7 10.5523 6.55228 11 6 11H5C4.44772 11 4 10.5523 4 10Z" fill="#B4A2B4"/>
<path d="M9 6C9 5.44772 9.44772 5 10 5H19C19.5523 5 20 5.44772 20 6C20 6.55228 19.5523 7 19 7H10C9.44771 7 9 6.55228 9 6Z" fill="#B4A2B4"/>
<path d="M4 6C4 5.44772 4.44772 5 5 5H6C6.55228 5 7 5.44772 7 6C7 6.55228 6.55228 7 6 7H5C4.44772 7 4 6.55228 4 6Z" fill="#B4A2B4"/>
</svg>
