<?xml version="1.0" encoding="UTF-8"?>
<svg width="24px" height="24px" viewBox="0 0 24 24" version="1.1" xmlns="http://www.w3.org/2000/svg" xmlns:xlink="http://www.w3.org/1999/xlink">
    <!-- Generator: sketchtool 50.2 (55047) - http://www.bohemiancoding.com/sketch -->
    <title>F1E0333E-9DB8-4A2A-982E-A110AA94797B</title>
    <desc>Created with sketchtool.</desc>
    <defs></defs>
    <g id="Symbols" stroke="none" stroke-width="1" fill="none" fill-rule="evenodd">
        <g id="⚛️/icon/24/agen" fill="#697586" fill-rule="nonzero">
            <g id="24px_a-star" transform="translate(3.000000, 3.000000)">
                <path d="M10,16 L10,18 L-1.23649543e-05,18 L-9.93686802e-06,16.9999976 L3.85704199e-06,13.0013299 C-0.00392401215,11.6259486 0.832056386,10.4134756 2.10513333,9.95595282 C3.35474603,9.51186562 7.78302685,8.99975586 10,8.99975586 L10,10.9997559 C7.99149602,10.9997559 3.76533473,11.4884915 2.77820617,11.8392904 C2.310461,12.0073927 1.99846577,12.4598983 1.99999978,12.9984765 L1.99999249,16 L10,16 Z" id="Shape"></path>
                <path d="M9.5,9 C10.6961249,9 12,7.21702359 12,5.5 L12,4.75 C12,3.21638786 10.8647047,2 9.5,2 C8.13529533,2 7,3.21638786 7,4.75 L7,5.5 C7,7.21702359 8.30387507,9 9.5,9 Z M9.5,11 C7.03991423,11 5,8.21053111 5,5.5 L5,4.75 C5,2.14147652 6.99871142,4.4408921e-16 9.5,0 C12.0012886,-8.8817842e-16 14,2.14147652 14,4.75 L14,5.5 C14,8.21053111 11.9600858,11 9.5,11 Z" id="Shape"></path>
                <polygon id="Shape" points="14.5 10 15.5815 12.3043844 18 12.6738513 16.25 14.4674587 16.663 17 14.5 15.8040164 12.337 17 12.75 14.4674587 11 12.6738513 13.4185 12.3043844"></polygon>
            </g>
        </g>
    </g>
</svg>