<?xml version="1.0" encoding="UTF-8"?>
<svg width="24px" height="24px" viewBox="0 0 24 24" version="1.1" xmlns="http://www.w3.org/2000/svg" xmlns:xlink="http://www.w3.org/1999/xlink">
    <!-- Generator: sketchtool 50.2 (55047) - http://www.bohemiancoding.com/sketch -->
    <title>45B92B2A-2C42-4BC9-B9DF-B61E14A7200E</title>
    <desc>Created with sketchtool.</desc>
    <defs></defs>
    <g id="Symbols" stroke="none" stroke-width="1" fill="none" fill-rule="evenodd">
        <g id="⚛️/icon/24/app-version" fill="#697586">
            <g id="Group" transform="translate(6.000000, 3.000000)">
                <path d="M2,0 L10,0 C11.1045695,-2.02906125e-16 12,0.8954305 12,2 L12,16 C12,17.1045695 11.1045695,18 10,18 L2,18 C0.8954305,18 1.3527075e-16,17.1045695 0,16 L0,2 C-1.3527075e-16,0.8954305 0.8954305,2.02906125e-16 2,0 Z M2,2 L2,16 L10,16 L10,2 L2,2 Z M2,3 L10,3 L10,4 L2,4 L2,3 Z M2,11 L10,11 L10,13 L2,13 L2,11 Z" id="Combined-Shape"></path>
            </g>
        </g>
    </g>
</svg>