<?xml version="1.0" encoding="UTF-8"?>
<svg width="24px" height="24px" viewBox="0 0 24 24" version="1.1" xmlns="http://www.w3.org/2000/svg" xmlns:xlink="http://www.w3.org/1999/xlink">
    <!-- Generator: sketchtool 50.2 (55047) - http://www.bohemiancoding.com/sketch -->
    <title>2BA78ED3-0B23-444B-A2BF-A8C26AB40999</title>
    <desc>Created with sketchtool.</desc>
    <defs></defs>
    <g id="Symbols" stroke="none" stroke-width="1" fill="none" fill-rule="evenodd">
        <g id="⚛️/icon/24/balance" fill="#697586" fill-rule="nonzero">
            <g id="24px_money-coins" transform="translate(3.000000, 3.000000)">
                <path d="M17.9953626,12 L18,12 L18,14.8571429 C18,16.7952798 15.4700876,18 12.5,18 C9.52991244,18 7,16.7952798 7,14.8571429 L7,12 L7.00463744,12 C7.00155644,11.952837 7,11.9052155 7,11.8571429 L7,9 L9,9 L9,11.8571429 C9,12.2861488 10.4990876,13 12.5,13 C14.5009124,13 16,12.2861488 16,11.8571429 L16,9 L18,9 L18,11.8571429 C18,11.9052155 17.9984436,11.952837 17.9953626,12 Z M16,14.3345769 C15.0396462,14.7646251 13.8128232,15 12.5,15 C11.1871768,15 9.96035378,14.7646251 9,14.3345769 L9,14.8571429 C9,15.2861488 10.4990876,16 12.5,16 C14.5009124,16 16,15.2861488 16,14.8571429 L16,14.3345769 Z M5,10 C5,10.5522847 4.55228475,11 4,11 L1,11 L0,11 L0,0 L15,0 L15,7 L13,7 L13,2 L2,2 L2,9 L4,9 C4.55228475,9 5,9.44771525 5,10 Z" id="Combined-Shape"></path>
                <path d="M12.5,12 C9.52343269,12 7,10.8784744 7,9 C7,7.12152564 9.52343269,6 12.5,6 C15.4765673,6 18,7.12152564 18,9 C18,10.8784744 15.4765673,12 12.5,12 Z M9.07802748,9.08910529 C9.20511865,9.22265074 9.42565631,9.36773462 9.72415795,9.50040201 C10.4267946,9.81268496 11.4232352,10 12.5,10 C13.5767648,10 14.5732054,9.81268496 15.275842,9.50040201 C15.5743437,9.36773462 15.7948814,9.22265074 15.9219725,9.08910529 C15.9820291,9.0259988 15.9973349,8.99900887 15.99966,8.99912244 C15.9973276,9.00097817 15.9820146,8.97398606 15.9219725,8.91089471 C15.7948814,8.77734926 15.5743437,8.63226538 15.275842,8.49959799 C14.5732054,8.18731504 13.5767648,8 12.5,8 C11.4232352,8 10.4267946,8.18731504 9.72415795,8.49959799 C9.42565631,8.63226538 9.20511865,8.77734926 9.07802748,8.91089471 C9.01797094,8.9740012 9.00266507,9.00099113 9.00034002,9.00087756 C9.00267242,8.99902183 9.01798535,9.02601394 9.07802748,9.08910529 Z" id="Oval"></path>
                <circle id="Oval" cx="7.5" cy="5.5" r="1.5"></circle>
            </g>
        </g>
    </g>
</svg>