<?xml version="1.0" encoding="UTF-8"?>
<svg width="24px" height="24px" viewBox="0 0 24 24" version="1.1" xmlns="http://www.w3.org/2000/svg" xmlns:xlink="http://www.w3.org/1999/xlink">
    <!-- Generator: sketchtool 50.2 (55047) - http://www.bohemiancoding.com/sketch -->
    <title>0A0907D3-C8F2-4E6C-9673-62A3CE218D35</title>
    <desc>Created with sketchtool.</desc>
    <defs></defs>
    <g id="Symbols" stroke="none" stroke-width="1" fill="none" fill-rule="evenodd">
        <g id="⚛️/icon/24/claim-items" fill="#697586" fill-rule="nonzero">
            <g id="24px_box-ribbon" transform="translate(3.000000, 3.000000)">
                <path d="M8,6 L8,9 L9,8.00280762 L10,9 L10,6 L9,6 L8,6 Z M6,6 L4,6 L4,16 L14,16 L14,6 L12,6 L12,10.1339177 C12,10.6862025 11.5522847,11.1339177 11,11.1339177 C10.8029447,11.1339177 10.6102816,11.0756982 10.4462032,10.9665696 L9,10.0046997 L7.55379682,10.9665696 C7.09393591,11.2724231 6.4732017,11.1475755 6.16734816,10.6877146 C6.05821957,10.5236361 6,10.330973 6,10.1339177 L6,6 Z M2,6 L0,6 L0,1 C-6.76353751e-17,0.44771525 0.44771525,1.01453063e-16 1,0 L9,0 L17,0 C17.5522847,-1.01453063e-16 18,0.44771525 18,1 L18,6 L16,6 L16,17 C16,17.5522847 15.5522847,18 15,18 L3,18 C2.44771525,18 2,17.5522847 2,17 L2,6 Z M9,2 L2,2 L2,4 L9,4 L16,4 L16,2 L9,2 Z" id="Combined-Shape"></path>
            </g>
        </g>
    </g>
</svg>