<?xml version="1.0" encoding="UTF-8"?>
<svg width="16px" height="16px" viewBox="0 0 16 16" version="1.1" xmlns="http://www.w3.org/2000/svg" xmlns:xlink="http://www.w3.org/1999/xlink">
    <!-- Generator: sketchtool 50.2 (55047) - http://www.bohemiancoding.com/sketch -->
    <title>6C234980-106F-4DB6-BEE4-05C8C9D63EB2</title>
    <desc>Created with sketchtool.</desc>
    <defs>
        <path d="M8,0 C3.6,0 0,3.6 0,8 C0,12.4 3.6,16 8,16 C12.4,16 16,12.4 16,8 C16,3.6 12.4,0 8,0 Z M10.8,10.8 L10.8,10.8 C10.4134007,11.1865993 9.78659932,11.1865993 9.4,10.8 L8,9.4 L6.6,10.8 C6.21340068,11.1865993 5.58659932,11.1865993 5.2,10.8 L5.2,10.8 C4.81340068,10.4134007 4.81340068,9.78659932 5.2,9.4 L6.6,8 L5.2,6.6 C4.81340068,6.21340068 4.81340068,5.58659932 5.2,5.2 L5.2,5.2 C5.58659932,4.81340068 6.21340068,4.81340068 6.6,5.2 L8,6.6 L9.4,5.2 C9.78659932,4.81340068 10.4134007,4.81340068 10.8,5.2 L10.8,5.2 C11.1865993,5.58659932 11.1865993,6.21340068 10.8,6.6 L9.4,8 L10.8,9.4 C11.1865993,9.78659932 11.1865993,10.4134007 10.8,10.8 Z" id="path-1"></path>
    </defs>
    <g id="Page-1" stroke="none" stroke-width="1" fill="none" fill-rule="evenodd">
        <g id="ðŸ–¥-Icons" transform="translate(-209.000000, -648.000000)">
            <g id="Sidebar" transform="translate(46.000000, 534.000000)">
                <g id="âš›ï¸/icon/16/close-fill" transform="translate(163.000000, 114.000000)">
                    <mask id="mask-2" fill="white">
                        <use xlink:href="#path-1"></use>
                    </mask>
                    <use id="Mask" fill="#111111" fill-rule="nonzero" xlink:href="#path-1"></use>
                    <g id="âš›ï¸/ðŸŒˆ/Dark-400" mask="url(#mask-2)" fill="#697586" fill-rule="evenodd">
                        <g transform="translate(-4.000000, -7.000000)" id="Rectangle">
                            <rect x="0" y="0" width="40" height="40"></rect>
                        </g>
                    </g>
                </g>
            </g>
        </g>
    </g>
</svg>