<?xml version="1.0" encoding="UTF-8"?>
<svg width="16px" height="16px" viewBox="0 0 16 16" version="1.1" xmlns="http://www.w3.org/2000/svg" xmlns:xlink="http://www.w3.org/1999/xlink">
    <!-- Generator: sketchtool 50.2 (55047) - http://www.bohemiancoding.com/sketch -->
    <title>3F467438-2216-4442-9040-F9ABE18D78CB</title>
    <desc>Created with sketchtool.</desc>
    <defs>
        <path d="M11,7 L9,7 L9,5 C9,4.448 8.553,4 8,4 C7.447,4 7,4.448 7,5 L7,7 L5,7 C4.447,7 4,7.448 4,8 C4,8.552 4.447,9 5,9 L7,9 L7,11 C7,11.552 7.447,12 8,12 C8.553,12 9,11.552 9,11 L9,9 L11,9 C11.553,9 12,8.552 12,8 C12,7.448 11.553,7 11,7" id="path-1"></path>
    </defs>
    <g id="Symbols" stroke="none" stroke-width="1" fill="none" fill-rule="evenodd">
        <g id="âš›ï¸/icon/16/close">
            <mask id="mask-2" fill="white">
                <use xlink:href="#path-1"></use>
            </mask>
            <use id="Mask" fill="#ECEFF1" transform="translate(8.000000, 8.000000) rotate(45.000000) translate(-8.000000, -8.000000) " xlink:href="#path-1"></use>
            <g id="âš›ï¸/ðŸŒˆ/Dark-400" mask="url(#mask-2)" fill="#697586">
                <g transform="translate(-4.000000, -7.000000)" id="Rectangle">
                    <rect x="0" y="0" width="40" height="40"></rect>
                </g>
            </g>
        </g>
    </g>
</svg>