<?xml version="1.0" encoding="UTF-8"?>
<svg width="24px" height="24px" viewBox="0 0 24 24" version="1.1" xmlns="http://www.w3.org/2000/svg" xmlns:xlink="http://www.w3.org/1999/xlink">
    <!-- Generator: sketchtool 50.2 (55047) - http://www.bohemiancoding.com/sketch -->
    <title>79F163CC-8736-4ED4-B299-CA9E039ABDFE</title>
    <desc>Created with sketchtool.</desc>
    <defs></defs>
    <g id="Symbols" stroke="none" stroke-width="1" fill="none" fill-rule="evenodd">
        <g id="⚛️/icon/24/dashboard" fill="#697586" fill-rule="nonzero">
            <g id="24px_grid-49" transform="translate(3.000000, 3.000000)">
                <path d="M2,2 L2,16 L16,16 L16,2 L2,2 Z M18,1 L18,17 C18,17.5522847 17.5522847,18 17,18 L1,18 C0.44771525,18 6.76353751e-17,17.5522847 0,17 L0,1 C-6.76353751e-17,0.44771525 0.44771525,1.01453063e-16 1,0 L17,0 C17.5522847,-1.01453063e-16 18,0.44771525 18,1 Z" id="Shape"></path>
                <path d="M8,5 L8,7 C8,7.55228475 7.55228475,8 7,8 L5,8 C4.44771525,8 4,7.55228475 4,7 L4,5 C4,4.44771525 4.44771525,4 5,4 L7,4 C7.55228475,4 8,4.44771525 8,5 Z" id="Shape"></path>
                <path d="M8,11 L8,13 C8,13.5522847 7.55228475,14 7,14 L5,14 C4.44771525,14 4,13.5522847 4,13 L4,11 C4,10.4477153 4.44771525,10 5,10 L7,10 C7.55228475,10 8,10.4477153 8,11 Z" id="Shape"></path>
                <path d="M14,5 L14,7 C14,7.55228475 13.5522847,8 13,8 L11,8 C10.4477153,8 10,7.55228475 10,7 L10,5 C10,4.44771525 10.4477153,4 11,4 L13,4 C13.5522847,4 14,4.44771525 14,5 Z" id="Shape"></path>
                <path d="M14,11 L14,13 C14,13.5522847 13.5522847,14 13,14 L11,14 C10.4477153,14 10,13.5522847 10,13 L10,11 C10,10.4477153 10.4477153,10 11,10 L13,10 C13.5522847,10 14,10.4477153 14,11 Z" id="Shape"></path>
            </g>
        </g>
    </g>
</svg>