<?xml version="1.0" encoding="UTF-8"?>
<svg width="24px" height="24px" viewBox="0 0 24 24" version="1.1" xmlns="http://www.w3.org/2000/svg" xmlns:xlink="http://www.w3.org/1999/xlink">
    <!-- Generator: sketchtool 50.2 (55047) - http://www.bohemiancoding.com/sketch -->
    <title>C683F46C-4506-46AB-A6A8-86DF729C3253</title>
    <desc>Created with sketchtool.</desc>
    <defs></defs>
    <g id="Symbols" stroke="none" stroke-width="1" fill="none" fill-rule="evenodd">
        <g id="⚛️/icon/24/e-commerce" fill="#697586" fill-rule="nonzero">
            <g id="24px_bag-add-21" transform="translate(3.000000, 3.000000)">
                <path d="M2,16 L10,16 L10,18 L0,18 L0,5 C-6.76353751e-17,4.44771525 0.44771525,4 1,4 L15,4 C15.5522847,4 16,4.44771525 16,5 L16,10 L14,10 L14,6 L2,6 L2,16 Z" id="Shape"></path>
                <path d="M5,8 L5,8 C4.44771525,8 4,7.55228475 4,7 L4,4 C4,1.790861 5.790861,4.4408921e-16 8,0 C10.209139,-4.4408921e-16 12,1.790861 12,4 L12,7 C12,7.55228475 11.5522847,8 11,8 L11,8 C10.4477153,8 10,7.55228475 10,7 L10,4 C10,2.8954305 9.1045695,2 8,2 C6.8954305,2 6,2.8954305 6,4 L6,7 C6,7.55228475 5.55228475,8 5,8 Z" id="Shape"></path>
                <polygon id="Shape" points="14 12 16 12 16 18 14 18"></polygon>
                <polygon id="Shape" points="12 16 12 14 18 14 18 16"></polygon>
            </g>
        </g>
    </g>
</svg>