<?xml version="1.0" encoding="UTF-8"?>
<svg width="16px" height="16px" viewBox="0 0 16 16" version="1.1" xmlns="http://www.w3.org/2000/svg" xmlns:xlink="http://www.w3.org/1999/xlink">
    <!-- Generator: sketchtool 50.2 (55047) - http://www.bohemiancoding.com/sketch -->
    <title>18D7404B-4404-45C4-9BA3-9BC0CC374184</title>
    <desc>Created with sketchtool.</desc>
    <defs>
        <path d="M15,0 L1,0 C0.4,0 0,0.4 0,1 L0,3 C0,3.3 0.1,3.6 0.4,3.8 L6,8.5 L6,15 C6,15.4 6.2,15.8 6.6,15.9 C6.7,16 6.9,16 7,16 C7.3,16 7.5,15.9 7.7,15.7 L9.7,13.7 C9.9,13.5 10,13.3 10,13 L10,8.5 L15.6,3.8 C15.9,3.6 16,3.3 16,3 L16,1 C16,0.4 15.6,0 15,0 Z" id="path-1"></path>
    </defs>
    <g id="Page-1" stroke="none" stroke-width="1" fill="none" fill-rule="evenodd">
        <g id="ðŸ–¥-Icons" transform="translate(-155.000000, -704.000000)">
            <g id="Sidebar" transform="translate(46.000000, 534.000000)">
                <g id="âš›ï¸/icon/16/filter" transform="translate(109.000000, 170.000000)">
                    <mask id="mask-2" fill="white">
                        <use xlink:href="#path-1"></use>
                    </mask>
                    <use id="Mask" fill="#111111" fill-rule="nonzero" xlink:href="#path-1"></use>
                    <g id="âš›ï¸/ðŸŒˆ/Dark-400" mask="url(#mask-2)" fill="#697586" fill-rule="evenodd">
                        <g transform="translate(-4.000000, -7.000000)" id="Rectangle">
                            <rect x="0" y="0" width="40" height="40"></rect>
                        </g>
                    </g>
                </g>
            </g>
        </g>
    </g>
</svg>