<?xml version="1.0" encoding="UTF-8"?>
<svg width="16px" height="16px" viewBox="0 0 16 16" version="1.1" xmlns="http://www.w3.org/2000/svg" xmlns:xlink="http://www.w3.org/1999/xlink">
    <!-- Generator: sketchtool 50.2 (55047) - http://www.bohemiancoding.com/sketch -->
    <title>9788D8B6-D5CE-4687-B2C5-583E90B64177</title>
    <desc>Created with sketchtool.</desc>
    <defs>
        <path d="M15.135,6.784 C14.520373,6.63031969 14.0149084,6.19451433 13.7724262,5.60920556 C13.5299439,5.0238968 13.5791239,4.35831277 13.905,3.815 C14.227,3.279 14.13,2.817 13.811,2.499 L13.501,2.189 C13.183,1.871 12.721,1.774 12.185,2.095 C11.6416872,2.42087608 10.9761032,2.47005608 10.3907944,2.22757384 C9.80548567,1.98509159 9.36968031,1.479627 9.216,0.865 C9.065,0.258 8.669,0 8.219,0 L7.781,0 C7.331,0 6.936,0.258 6.784,0.865 C6.63031969,1.479627 6.19451433,1.98509159 5.60920556,2.22757384 C5.0238968,2.47005608 4.35831277,2.42087608 3.815,2.095 C3.279,1.773 2.816,1.87 2.498,2.188 L2.188,2.498 C1.87,2.816 1.773,3.279 2.095,3.815 C2.42087608,4.35831277 2.47005608,5.0238968 2.22757384,5.60920556 C1.98509159,6.19451433 1.479627,6.63031969 0.865,6.784 C0.26,6.935 0,7.33 0,7.781 L0,8.219 C0,8.669 0.258,9.064 0.865,9.216 C1.479627,9.36968031 1.98509159,9.80548567 2.22757384,10.3907944 C2.47005608,10.9761032 2.42087608,11.6416872 2.095,12.185 C1.773,12.721 1.87,13.183 2.189,13.501 L2.499,13.811 C2.818,14.13 3.281,14.226 3.815,13.905 C4.35831277,13.5791239 5.0238968,13.5299439 5.60920556,13.7724262 C6.19451433,14.0149084 6.63031969,14.520373 6.784,15.135 C6.935,15.742 7.331,16 7.781,16 L8.219,16 C8.669,16 9.064,15.742 9.216,15.135 C9.36968031,14.520373 9.80548567,14.0149084 10.3907944,13.7724262 C10.9761032,13.5299439 11.6416872,13.5791239 12.185,13.905 C12.72,14.226 13.182,14.13 13.501,13.811 L13.811,13.501 C14.129,13.183 14.226,12.721 13.905,12.185 C13.5791239,11.6416872 13.5299439,10.9761032 13.7724262,10.3907944 C14.0149084,9.80548567 14.520373,9.36968031 15.135,9.216 C15.742,9.065 16,8.669 16,8.219 L16,7.781 C16,7.33 15.74,6.935 15.135,6.784 Z M8,11 C6.34314575,11 5,9.65685425 5,8 C5,6.34314575 6.34314575,5 8,5 C9.65685425,5 11,6.34314575 11,8 C11,9.65685425 9.65685425,11 8,11 Z" id="path-1"></path>
    </defs>
    <g id="Page-1" stroke="none" stroke-width="1" fill="none" fill-rule="evenodd">
        <g id="ðŸ–¥-Icons" transform="translate(-264.000000, -704.000000)">
            <g id="Sidebar" transform="translate(46.000000, 534.000000)">
                <g id="âš›ï¸/icon/16/gear" transform="translate(218.000000, 170.000000)">
                    <mask id="mask-2" fill="white">
                        <use xlink:href="#path-1"></use>
                    </mask>
                    <use id="Mask" fill="#111111" fill-rule="nonzero" xlink:href="#path-1"></use>
                    <g id="âš›ï¸/ðŸŒˆ/Dark-400" mask="url(#mask-2)" fill="#697586" fill-rule="evenodd">
                        <g transform="translate(-4.000000, -7.000000)" id="Rectangle">
                            <rect x="0" y="0" width="40" height="40"></rect>
                        </g>
                    </g>
                </g>
            </g>
        </g>
    </g>
</svg>