<?xml version="1.0" encoding="UTF-8"?>
<svg width="16px" height="16px" viewBox="0 0 16 16" version="1.1" xmlns="http://www.w3.org/2000/svg" xmlns:xlink="http://www.w3.org/1999/xlink">
    <!-- Generator: sketchtool 50.2 (55047) - http://www.bohemiancoding.com/sketch -->
    <title>6A868D48-99A4-475D-9055-ED52DE147F17</title>
    <desc>Created with sketchtool.</desc>
    <defs>
        <path d="M4,8 C4,9.104 3.104,10 2,10 C0.896,10 0,9.104 0,8 C0,6.896 0.896,6 2,6 C3.104,6 4,6.896 4,8 Z M10,8 C10,9.104 9.104,10 8,10 C6.896,10 6,9.104 6,8 C6,6.896 6.896,6 8,6 C9.104,6 10,6.896 10,8 Z M16,8 C16,9.104 15.104,10 14,10 C12.896,10 12,9.104 12,8 C12,6.896 12.896,6 14,6 C15.104,6 16,6.896 16,8 Z" id="path-1"></path>
    </defs>
    <g id="Symbols" stroke="none" stroke-width="1" fill="none" fill-rule="evenodd">
        <g id="âš›ï¸/icon/16/horz-dots">
            <g id="icon">
                <rect id="Rectangle" fill="#ECEFF1" opacity="0" x="0" y="0" width="24" height="24"></rect>
                <mask id="mask-2" fill="white">
                    <use xlink:href="#path-1"></use>
                </mask>
                <use id="Mask" fill="#637381" xlink:href="#path-1"></use>
                <g id="âš›ï¸/ðŸŒˆ/Dark-400" mask="url(#mask-2)" fill="#697586">
                    <g transform="translate(-4.000000, -7.000000)" id="Rectangle">
                        <rect x="0" y="0" width="40" height="40"></rect>
                    </g>
                </g>
            </g>
        </g>
    </g>
</svg>