<?xml version="1.0" encoding="UTF-8"?>
<svg width="16px" height="16px" viewBox="0 0 16 16" version="1.1" xmlns="http://www.w3.org/2000/svg" xmlns:xlink="http://www.w3.org/1999/xlink">
    <!-- Generator: sketchtool 50.2 (55047) - http://www.bohemiancoding.com/sketch -->
    <title>5C97D3D9-F89B-49F6-8CE1-7DB3B001D002</title>
    <desc>Created with sketchtool.</desc>
    <defs>
        <path d="M13,0 L1,0 C0.4,0 0,0.4 0,1 L0,15 C0,15.6 0.4,16 1,16 L13,16 C13.6,16 14,15.6 14,15 L14,1 C14,0.4 13.6,0 13,0 Z M12,11 L9,6 L6,10 L4,8 L2,11 L2,2 L12,2 L12,11 Z" id="path-1"></path>
        <path d="M1,2 C1.6,2 2,1.6 2,1 C2,0.4 1.6,0 1,0 C0.4,0 0,0.4 0,1 C0,1.6 0.4,2 1,2 Z" id="path-3"></path>
    </defs>
    <g id="Symbols" stroke="none" stroke-width="1" fill="none" fill-rule="evenodd">
        <g id="âš›ï¸/icon/16/image">
            <g id="2" transform="translate(1.000000, 0.000000)">
                <mask id="mask-2" fill="white">
                    <use xlink:href="#path-1"></use>
                </mask>
                <use id="Mask" fill="#111111" fill-rule="nonzero" xlink:href="#path-1"></use>
                <g id="âš›ï¸/ðŸŒˆ/Dark-400" mask="url(#mask-2)" fill="#697586">
                    <g transform="translate(-1.000000, 0.000000)" id="Rectangle">
                        <rect x="0" y="0" width="16" height="16"></rect>
                    </g>
                </g>
            </g>
            <g id="1" transform="translate(5.000000, 4.000000)">
                <mask id="mask-4" fill="white">
                    <use xlink:href="#path-3"></use>
                </mask>
                <use id="Mask" fill="#111111" fill-rule="nonzero" xlink:href="#path-3"></use>
                <g id="âš›ï¸/ðŸŒˆ/Dark-400" mask="url(#mask-4)" fill="#697586">
                    <g transform="translate(-5.000000, -4.000000)" id="Rectangle">
                        <rect x="0" y="0" width="16" height="16"></rect>
                    </g>
                </g>
            </g>
        </g>
    </g>
</svg>