<?xml version="1.0" encoding="UTF-8"?>
<svg width="24px" height="24px" viewBox="0 0 24 24" version="1.1" xmlns="http://www.w3.org/2000/svg" xmlns:xlink="http://www.w3.org/1999/xlink">
    <!-- Generator: sketchtool 50.2 (55047) - http://www.bohemiancoding.com/sketch -->
    <title>530970DF-5E6E-4788-AE9F-17FF8361A6A6</title>
    <desc>Created with sketchtool.</desc>
    <defs></defs>
    <g id="Symbols" stroke="none" stroke-width="1" fill="none" fill-rule="evenodd">
        <g id="⚛️/icon/24/kios" fill="#697586" fill-rule="nonzero">
            <g id="24px_store" transform="translate(3.000000, 3.000000)">
                <polygon id="Shape" points="16 3 16 5 2 5 2 3"></polygon>
                <path d="M8,14 L8,18 L2,18 L2,8 L4,8 L4,16 L6,16 L6,13 C6,12.4477153 6.44771525,12 7,12 L11,12 C11.5522847,12 12,12.4477153 12,13 L12,16 L14,16 L14,8 L16,8 L16,18 L10,18 L10,14 L8,14 Z" id="Shape"></path>
                <path d="M14,4 L14,2 L4,2 L4,4 L2,7 L16,7 L14,4 Z M16,4 L18,7 L18,9 L0,9 L0,7 L2,4 L2,1 C2,0.44771525 2.44771525,1.01453063e-16 3,0 L15,0 C15.5522847,-1.01453063e-16 16,0.44771525 16,1 L16,4 Z" id="Shape"></path>
            </g>
        </g>
    </g>
</svg>