<?xml version="1.0" encoding="UTF-8"?>
<svg width="24px" height="24px" viewBox="0 0 24 24" version="1.1" xmlns="http://www.w3.org/2000/svg" xmlns:xlink="http://www.w3.org/1999/xlink">
    <!-- Generator: sketchtool 50.2 (55047) - http://www.bohemiancoding.com/sketch -->
    <title>B603A606-A7DA-4475-A89B-6239B7AC7FE8</title>
    <desc>Created with sketchtool.</desc>
    <defs></defs>
    <g id="Symbols" stroke="none" stroke-width="1" fill="none" fill-rule="evenodd">
        <g id="⚛️/icon/24/kirim-balance" fill="#697586">
            <g id="24px_payment" transform="translate(3.000000, 3.000000)">
                <polygon id="Shape" fill-rule="nonzero" points="2 10 7 10 7 12 1.11022302e-16 12 0 3 18 3 18 13 16 13 16 5 2 5"></polygon>
                <path d="M10,11.1441076 L10,10 C10,7.8689407 11.9317837,6 14,6 L15,6 L15,12.5 C15,16.0697086 12.3360987,19 9,19 C5.66390125,19 3,16.0697086 3,12.5 L3,11.1333333 L5,11.1333333 L5,12.5 C5,15.0054236 6.81325125,17 9,17 C11.1867487,17 13,15.0054236 13,12.5 L13,8.32356983 C12.4304319,8.69673932 12,9.34355993 12,10 L12,13 L11,13 C10.0218229,13 9,13.9885819 9,15 L9,16 L7,16 L7,15 C7,13.2189254 8.34937177,11.6209436 10,11.1441076 Z" id="Shape" fill-rule="nonzero"></path>
                <path d="M15,5 L13,5 L13,3.25 C13,2.54902598 12.4771181,2 11.8571429,2 L6.14285714,2 C5.52288189,2 5,2.54902598 5,3.25 L5,5 L3,5 L3,3.25 C3,1.46569265 4.39589776,-2.22044605e-16 6.14285714,0 L11.8571429,0 C13.6041022,2.22044605e-16 15,1.46569265 15,3.25 L15,5 Z" id="Shape" fill-rule="nonzero"></path>
                <rect id="Rectangle-5" x="4" y="7" width="3" height="1" rx="0.5"></rect>
            </g>
        </g>
    </g>
</svg>