<?xml version="1.0" encoding="UTF-8"?>
<svg width="24px" height="24px" viewBox="0 0 24 24" version="1.1" xmlns="http://www.w3.org/2000/svg" xmlns:xlink="http://www.w3.org/1999/xlink">
    <!-- Generator: sketchtool 50.2 (55047) - http://www.bohemiancoding.com/sketch -->
    <title>151E650B-C697-417A-9EFB-756AF9A6FF67</title>
    <desc>Created with sketchtool.</desc>
    <defs></defs>
    <g id="Symbols" stroke="none" stroke-width="1" fill="none" fill-rule="evenodd">
        <g id="⚛️/icon/24/location" fill="#697586" fill-rule="nonzero">
            <g id="24px_shop-location" transform="translate(3.000000, 3.000000)">
                <path d="M10,7 C10,7.85516829 9.59693352,8.79318582 8.99838257,9.30639789 C8.37511784,8.78682772 8,7.84264218 8,7 L10,7 C10,7.39306181 10.0301237,7.96686319 10.5115051,8.00277043 L10.5115051,9.99722957 C9.87126992,9.94947309 9.46610207,9.69630139 8.99838257,9.30639789 C8.49282791,9.73987269 7.72974061,10 6.99917603,10 C6.28079473,10 5.50148102,9.74847639 4.99917603,9.32793944 C4.49687103,9.74847639 3.71676387,10 2.99838257,10 C1.28563182,10 0,9.15412421 0,7.24984741 L0,7.01377943 L2.99838257,0 L13.9983826,0 L16.9962769,7 L16.9962769,7.23606798 C16.9962769,7.43046484 16.9942304,7.49595173 16.9762236,7.6181799 C16.9561201,7.75464002 16.5793853,7.76297416 16.5209656,7.93292236 L15.4075577,7.29541246 L14.9987488,7 L12.9983826,2 L3.99508667,2 L1.99838257,7 C2.04417571,7.59615513 2.42960839,8 2.99838257,8 C3.50286675,8 3.99508667,7.45889375 3.99508667,7 L5.99508667,7 C5.99508667,7.86721378 5.6124841,8.81446911 4.99917603,9.32793944 C4.38586795,8.81446911 3.99508667,7.86721378 3.99508667,7 L5.99508667,7 C5.99508667,7.45889375 6.49469185,8 6.99917603,8 C7.5036602,8 8,7.45889375 8,7 L10,7 Z" id="Shape"></path>
                <polygon id="Shape" points="4 16 11 16 11 18 2 18 2 9 4 9"></polygon>
                <path d="M14.4606478,13.4022808 C14.8694524,12.8766748 15.2154801,12.3707787 15.4779114,11.9030928 C15.8227645,11.2885207 16,10.7768338 16,10.4351145 C16,9.00072135 14.8604204,8 13.5,8 C12.1395796,8 11,9.00072135 11,10.4351145 C11,10.7768338 11.1772355,11.2885207 11.5220886,11.9030928 C11.7845199,12.3707787 12.1305476,12.8766748 12.5393522,13.4022808 C12.8452348,13.7955584 13.171024,14.180726 13.5,14.5457258 C13.828976,14.180726 14.1547652,13.7955584 14.4606478,13.4022808 Z M18,10.4351145 C18,11.1855683 17.7195418,11.9952641 17.2220846,12.8817959 C16.9056174,13.4457807 16.5050881,14.0313587 16.0393522,14.630162 C15.6377398,15.1465208 15.2096315,15.6448444 14.7815366,16.1084194 C14.5236081,16.3877247 14.3209254,16.5954596 14.2004604,16.7136913 L13.5,17.401166 L12.7995396,16.7136913 C12.6790746,16.5954596 12.4763919,16.3877247 12.2184634,16.1084194 C11.7903685,15.6448444 11.3622602,15.1465208 10.9606478,14.630162 C10.4949119,14.0313587 10.0943826,13.4457807 9.77791536,12.8817959 C9.28045825,11.9952641 9,11.1855683 9,10.4351145 C9,7.8341521 11.0886557,6 13.5,6 C15.9113443,6 18,7.8341521 18,10.4351145 Z" id="Shape"></path>
                <path d="M13.5,12 C12.6715729,12 12,11.3284271 12,10.5 C12,9.67157288 12.6715729,9 13.5,9 C14.3284271,9 15,9.67157288 15,10.5 C15,11.3284271 14.3284271,12 13.5,12 Z M13.5,10 C13.2238576,10 13,10.2238576 13,10.5 C13,10.7761424 13.2238576,11 13.5,11 C13.7761424,11 14,10.7761424 14,10.5 C14,10.2238576 13.7761424,10 13.5,10 Z" id="Oval"></path>
            </g>
        </g>
    </g>
</svg>