<?xml version="1.0" encoding="UTF-8"?>
<svg width="24px" height="24px" viewBox="0 0 24 24" version="1.1" xmlns="http://www.w3.org/2000/svg" xmlns:xlink="http://www.w3.org/1999/xlink">
    <!-- Generator: sketchtool 50.2 (55047) - http://www.bohemiancoding.com/sketch -->
    <title>41BB1BD1-5DD7-4F68-8BED-FAC8A2E667A5</title>
    <desc>Created with sketchtool.</desc>
    <defs></defs>
    <g id="Symbols" stroke="none" stroke-width="1" fill="none" fill-rule="evenodd">
        <g id="⚛️/icon/24/master-barang" stroke="#697586" stroke-width="2">
            <g id="24px_box-2" transform="translate(3.000000, 3.000000)">
                <path d="M0,5 L18,5" id="Shape"></path>
                <path d="M17.781129,4.73044993 L14.3002477,0.375630323 C14.1104831,0.138221941 13.8230485,-7.9536382e-15 13.5191187,-8.43769499e-15 L4.4808813,-1.19904087e-14 C4.17695149,-1.19345777e-14 3.88951685,0.138221941 3.6997523,0.375630323 L0.218871005,4.73044993 C0.0771836681,4.90771043 1.09165797e-14,5.127891 1.09443704e-14,5.3548196 L8.05779055e-15,17 C8.12542592e-15,17.5522847 0.44771525,18 1,18 L17,18 C17.5522847,18 18,17.5522847 18,17 L18,5.3548196 C18,5.127891 17.9228163,4.90771043 17.781129,4.73044993 Z" id="Shape" stroke-linecap="square"></path>
                <path d="M12.0015869,10.0022583 L6.00488281,10.0022583 C5.45259806,10.0022583 5.00488281,9.55454305 5.00488281,9.0022583 L5.00488281,4.29504395 L8.00488281,0 L10,0 L13.0015869,4.29504395 L13.0015869,9.0022583 C13.0015869,9.55454305 12.5538717,10.0022583 12.0015869,10.0022583 Z" id="Shape" stroke-linecap="square"></path>
            </g>
        </g>
    </g>
</svg>