<?xml version="1.0" encoding="UTF-8"?>
<svg width="24px" height="24px" viewBox="0 0 24 24" version="1.1" xmlns="http://www.w3.org/2000/svg" xmlns:xlink="http://www.w3.org/1999/xlink">
    <!-- Generator: sketchtool 50.2 (55047) - http://www.bohemiancoding.com/sketch -->
    <title>5939E947-88C5-4674-8ED7-8797727D8E79</title>
    <desc>Created with sketchtool.</desc>
    <defs></defs>
    <g id="Symbols" stroke="none" stroke-width="1" fill="none" fill-rule="evenodd">
        <g id="⚛️/icon/24/permission" fill="#697586" fill-rule="nonzero">
            <g id="16px_badge-15" transform="translate(3.000000, 3.000000)">
                <path d="M17,5 L12,5 L12,3 C12,1.3 10.7,0 9,0 C7.3,0 6,1.3 6,3 L6,5 L1,5 C0.4,5 0,5.4 0,6 L0,17 C0,17.6 0.4,18 1,18 L17,18 C17.6,18 18,17.6 18,17 L18,6 C18,5.4 17.6,5 17,5 Z M8,3 C8,2.4 8.4,2 9,2 C9.6,2 10,2.4 10,3 L10,5 L8,5 L8,3 Z M16,16 L2,16 L2,7 L16,7 L16,16 Z" id="Shape"></path>
                <path d="M5,9 L8,9 C8.55228475,9 9,9.44771525 9,10 L9,13 C9,13.5522847 8.55228475,14 8,14 L5,14 C4.44771525,14 4,13.5522847 4,13 L4,10 C4,9.44771525 4.44771525,9 5,9 Z M10.5,10 L13.5,10 C13.7761424,10 14,10.2238576 14,10.5 C14,10.7761424 13.7761424,11 13.5,11 L10.5,11 C10.2238576,11 10,10.7761424 10,10.5 C10,10.2238576 10.2238576,10 10.5,10 Z M10.5,12 L13.5,12 C13.7761424,12 14,12.2238576 14,12.5 C14,12.7761424 13.7761424,13 13.5,13 L10.5,13 C10.2238576,13 10,12.7761424 10,12.5 C10,12.2238576 10.2238576,12 10.5,12 Z" id="Combined-Shape"></path>
            </g>
        </g>
    </g>
</svg>