<?xml version="1.0" encoding="UTF-8"?>
<svg width="16px" height="16px" viewBox="0 0 16 16" version="1.1" xmlns="http://www.w3.org/2000/svg" xmlns:xlink="http://www.w3.org/1999/xlink">
    <!-- Generator: sketchtool 50.2 (55047) - http://www.bohemiancoding.com/sketch -->
    <title>D10D2B82-B9A7-45D6-93BD-ED149A414F91</title>
    <desc>Created with sketchtool.</desc>
    <defs>
        <path d="M9,7 L9,1 C9,0.448 8.553,0 8,0 C7.447,0 7,0.448 7,1 L7,7 L1,7 C0.447,7 0,7.448 0,8 C0,8.552 0.447,9 1,9 L7,9 L7,15 C7,15.552 7.447,16 8,16 C8.553,16 9,15.552 9,15 L9,9 L15,9 C15.553,9 16,8.552 16,8 C16,7.448 15.553,7 15,7 L9,7 Z" id="path-1"></path>
    </defs>
    <g id="Page-1" stroke="none" stroke-width="1" fill="none" fill-rule="evenodd">
        <g id="ðŸ–¥-Icons" transform="translate(-264.000000, -760.000000)">
            <g id="Sidebar" transform="translate(46.000000, 534.000000)">
                <g id="âš›ï¸/icon/16/plus" transform="translate(218.000000, 226.000000)">
                    <mask id="mask-2" fill="white">
                        <use xlink:href="#path-1"></use>
                    </mask>
                    <use id="Mask" fill="#ECEFF1" fill-rule="evenodd" xlink:href="#path-1"></use>
                    <g id="âš›ï¸/ðŸŒˆ/Dark-400" mask="url(#mask-2)" fill="#697586" fill-rule="evenodd">
                        <g transform="translate(-4.000000, -7.000000)" id="Rectangle">
                            <rect x="0" y="0" width="40" height="40"></rect>
                        </g>
                    </g>
                </g>
            </g>
        </g>
    </g>
</svg>