<?xml version="1.0" encoding="UTF-8"?>
<svg width="24px" height="24px" viewBox="0 0 24 24" version="1.1" xmlns="http://www.w3.org/2000/svg" xmlns:xlink="http://www.w3.org/1999/xlink">
    <!-- Generator: sketchtool 50.2 (55047) - http://www.bohemiancoding.com/sketch -->
    <title>6A1200DD-6152-4937-8C21-DCF5A7EC4A25</title>
    <desc>Created with sketchtool.</desc>
    <defs></defs>
    <g id="Symbols" stroke="none" stroke-width="1" fill="none" fill-rule="evenodd">
        <g id="⚛️/icon/24/point-mutation" fill="#697586" fill-rule="nonzero">
            <g id="16px_progress" transform="translate(3.000000, 3.000000)">
                <path d="M17,0 L2,0 C1.4,0 1,0.4 1,1 L1,9 C1,9.55228475 1.44771525,10 2,10 L2,10 C2.55228475,10 3,9.55228475 3,9 L3,2 L16,2 L16,14 L4,14 L4,12 L0,15 L4,18 L4,16 L17,16 C17.6,16 18,15.6 18,15 L18,1 C18,0.4 17.6,0 17,0 Z" id="Shape"></path>
                <path d="M8,5 L8,10 L11,10 C11.5522847,10 12,9.55228475 12,9 L12,9 C12,8.44771525 11.5522847,8 11,8 L10,8 L10,5 C10,4.44771525 9.55228475,4 9,4 L9,4 C8.44771525,4 8,4.44771525 8,5 Z" id="Shape"></path>
            </g>
        </g>
    </g>
</svg>