<?xml version="1.0" encoding="UTF-8"?>
<svg width="16px" height="16px" viewBox="0 0 16 16" version="1.1" xmlns="http://www.w3.org/2000/svg" xmlns:xlink="http://www.w3.org/1999/xlink">
    <!-- Generator: sketchtool 50.2 (55047) - http://www.bohemiancoding.com/sketch -->
    <title>962C4023-AF77-493D-A80B-043322BF6ABC</title>
    <desc>Created with sketchtool.</desc>
    <defs>
        <path d="M12,5 L4,5 C1.8,5 0,6.8 0,9 L0,12 C0,12.6 0.4,13 1,13 L3,13 L3,15 C3,15.6 3.4,16 4,16 L12,16 C12.6,16 13,15.6 13,15 L13,13 L15,13 C15.6,13 16,12.6 16,12 L16,9 C16,6.8 14.2,5 12,5 Z M11,14 L5,14 L5,10 L11,10 L11,14 Z M4,0 L12,0 L12,3 L4,3 L4,0 Z" id="path-1"></path>
    </defs>
    <g id="Page-1" stroke="none" stroke-width="1" fill="none" fill-rule="evenodd">
        <g id="ðŸ–¥-Icons" transform="translate(-46.000000, -816.000000)">
            <g id="Sidebar" transform="translate(46.000000, 534.000000)">
                <g id="âš›ï¸/icon/16/print" transform="translate(0.000000, 282.000000)">
                    <mask id="mask-2" fill="white">
                        <use xlink:href="#path-1"></use>
                    </mask>
                    <use id="Mask" fill="#111111" fill-rule="nonzero" xlink:href="#path-1"></use>
                    <g id="âš›ï¸/ðŸŒˆ/Dark-400" mask="url(#mask-2)" fill="#697586" fill-rule="evenodd">
                        <rect id="Rectangle" x="0" y="0" width="16" height="16"></rect>
                    </g>
                </g>
            </g>
        </g>
    </g>
</svg>