<?xml version="1.0" encoding="UTF-8"?>
<svg width="24px" height="24px" viewBox="0 0 24 24" version="1.1" xmlns="http://www.w3.org/2000/svg" xmlns:xlink="http://www.w3.org/1999/xlink">
    <!-- Generator: sketchtool 50.2 (55047) - http://www.bohemiancoding.com/sketch -->
    <title>4AB60D57-C7D1-4B8E-8506-3850D04B8279</title>
    <desc>Created with sketchtool.</desc>
    <defs></defs>
    <g id="Symbols" stroke="none" stroke-width="1" fill="none" fill-rule="evenodd">
        <g id="⚛️/icon/24/promo-code" fill="#697586" fill-rule="nonzero">
            <g id="24px_coupon" transform="translate(2.000000, 4.000000)">
                <path d="M17.0015869,8 C17.0015869,9.4989624 18.0390926,9.99914551 19,9.99914551 L20,9.99914551 L20,15 C20,15.5522847 19.5522847,16 19,16 L1,16 C0.44771525,16 6.76353751e-17,15.5522847 0,15 L0,9.99914551 L0.995056152,9.99914551 C1.95687399,9.99914551 3.00158691,9.50250244 3.00158691,8 C3.00158691,6.49749756 1.95687399,6.01318359 0.995056152,6.01318359 L0,6.01318359 L0,1 C-6.76353751e-17,0.44771525 0.44771525,1.01453063e-16 1,0 L19,-1.11022302e-16 C19.5522847,-2.12475365e-16 20,0.44771525 20,1 L20,6.01318359 L19,6.01318359 C18.0390926,6.01318359 17.0015869,6.5010376 17.0015869,8 Z M15.0015869,8 C15.0015869,5.99658203 15.9950562,3.99688721 18,3.99688721 L18,2 L2,2 L2,3.99680352 C3.99914529,3.99697055 5.00158691,6.00726318 5.00158691,8 C5.00158691,9.99273682 4.00903202,11.9952545 2,11.9954224 L2,14.0013428 L18,14.0013428 L18,11.9953387 C15.9917603,11.9954224 15.0015869,10.003418 15.0015869,8 Z" id="Shape"></path>
                <path d="M13,3.58578644 L14.4142136,5 L7,12.4142136 L5.58578644,11 L13,3.58578644 Z M7.5,6 C6.67157288,6 6,5.32842712 6,4.5 C6,3.67157288 6.67157288,3 7.5,3 C8.32842712,3 9,3.67157288 9,4.5 C9,5.32842712 8.32842712,6 7.5,6 Z M12.5,13 C11.6715729,13 11,12.3284271 11,11.5 C11,10.6715729 11.6715729,10 12.5,10 C13.3284271,10 14,10.6715729 14,11.5 C14,12.3284271 13.3284271,13 12.5,13 Z" id="Combined-Shape"></path>
            </g>
        </g>
    </g>
</svg>