<svg width="16" height="16" viewBox="0 0 16 16" fill="none" xmlns="http://www.w3.org/2000/svg">
<path fill-rule="evenodd" clip-rule="evenodd" d="M11.3 4.6C9.4 2.7 6.2 2.7 4.3 4.6L6.4 6.7L0 7.4L0.7 1L2.9 3.2C5.7 0.5 10.1 0.5 12.8 3.2C13.8 4.2 14.5 5.5 14.7 7L12.7 7.3C12.5 6.3 12 5.3 11.3 4.6ZM9.2 9.5L15.6 8.8L14.8 15.2L12.6 13C11.3 14.3 9.5 15 7.7 15C5.9 15 4.2 14.4 2.8 13C1.8 12 1.1 10.7 0.9 9.2L2.9 8.9C3.1 9.9 3.6 10.9 4.3 11.6C6.2 13.5 9.4 13.5 11.3 11.6L9.2 9.5Z" fill="#800080"/>
<mask id="mask0" mask-type="alpha" maskUnits="userSpaceOnUse" x="0" y="1" width="16" height="15">
<path fill-rule="evenodd" clip-rule="evenodd" d="M11.3 4.6C9.4 2.7 6.2 2.7 4.3 4.6L6.4 6.7L0 7.4L0.7 1L2.9 3.2C5.7 0.5 10.1 0.5 12.8 3.2C13.8 4.2 14.5 5.5 14.7 7L12.7 7.3C12.5 6.3 12 5.3 11.3 4.6ZM9.2 9.5L15.6 8.8L14.8 15.2L12.6 13C11.3 14.3 9.5 15 7.7 15C5.9 15 4.2 14.4 2.8 13C1.8 12 1.1 10.7 0.9 9.2L2.9 8.9C3.1 9.9 3.6 10.9 4.3 11.6C6.2 13.5 9.4 13.5 11.3 11.6L9.2 9.5Z" fill="white"/>
</mask>
<g mask="url(#mask0)">
</g>
</svg>
