<?xml version="1.0" encoding="UTF-8"?>
<svg width="24px" height="24px" viewBox="0 0 24 24" version="1.1" xmlns="http://www.w3.org/2000/svg" xmlns:xlink="http://www.w3.org/1999/xlink">
    <!-- Generator: sketchtool 50.2 (55047) - http://www.bohemiancoding.com/sketch -->
    <title>772CC7D8-8576-45F1-BF02-A555ADBA4776</title>
    <desc>Created with sketchtool.</desc>
    <defs></defs>
    <g id="Symbols" stroke="none" stroke-width="1" fill="none" fill-rule="evenodd">
        <g id="⚛️/icon/24/slide-show-banner" fill="#697586" fill-rule="nonzero">
            <g id="24px_album-2" transform="translate(3.000000, 3.000000)">
                <path d="M6.64731886,17.7594079 L5.34608934,16.2405921 L12.3493852,10.2405921 C12.7052526,9.93570647 13.2251108,9.91883308 13.6,10.2 L17.6,13.2 L16.4,14.8 L13.0415844,12.2811883 L6.64731886,17.7594079 Z" id="Shape"></path>
                <path d="M6.5,12 C5.11928813,12 4,10.8807119 4,9.5 C4,8.11928813 5.11928813,7 6.5,7 C7.88071187,7 9,8.11928813 9,9.5 C9,10.8807119 7.88071187,12 6.5,12 Z M6.5,10 C6.77614237,10 7,9.77614237 7,9.5 C7,9.22385763 6.77614237,9 6.5,9 C6.22385763,9 6,9.22385763 6,9.5 C6,9.77614237 6.22385763,10 6.5,10 Z" id="Oval"></path>
                <path d="M2,3 L2,16 L16,16 L16,3 L2,3 Z M18,2 L18,17 C18,17.5522847 17.5522847,18 17,18 L1,18 C0.44771525,18 6.76353751e-17,17.5522847 0,17 L0,2 C-6.76353751e-17,1.44771525 0.44771525,1 1,1 L17,1 C17.5522847,1 18,1.44771525 18,2 Z" id="Shape"></path>
                <path d="M5,0 L5,0 C5.55228475,-1.01453063e-16 6,0.44771525 6,1 L6,4 C6,4.55228475 5.55228475,5 5,5 L5,5 C4.44771525,5 4,4.55228475 4,4 L4,1 C4,0.44771525 4.44771525,1.01453063e-16 5,0 Z" id="Shape"></path>
                <path d="M9,0 L9,0 C9.55228475,-1.01453063e-16 10,0.44771525 10,1 L10,4 C10,4.55228475 9.55228475,5 9,5 L9,5 C8.44771525,5 8,4.55228475 8,4 L8,1 C8,0.44771525 8.44771525,1.01453063e-16 9,0 Z" id="Shape"></path>
                <path d="M13,0 L13,0 C13.5522847,-1.01453063e-16 14,0.44771525 14,1 L14,4 C14,4.55228475 13.5522847,5 13,5 L13,5 C12.4477153,5 12,4.55228475 12,4 L12,1 C12,0.44771525 12.4477153,1.01453063e-16 13,0 Z" id="Shape"></path>
            </g>
        </g>
    </g>
</svg>