<?xml version="1.0" encoding="UTF-8"?>
<svg width="24px" height="24px" viewBox="0 0 24 24" version="1.1" xmlns="http://www.w3.org/2000/svg" xmlns:xlink="http://www.w3.org/1999/xlink">
    <!-- Generator: sketchtool 50.2 (55047) - http://www.bohemiancoding.com/sketch -->
    <title>6E30AADE-CE69-4F1A-96D6-A3A649E3788C</title>
    <desc>Created with sketchtool.</desc>
    <defs></defs>
    <g id="Symbols" stroke="none" stroke-width="1" fill="none" fill-rule="evenodd">
        <g id="⚛️/icon/24/transaksi-pulsa" fill="#697586">
            <g id="24px_tablet-button" transform="translate(5.000000, 3.000000)">
                <path d="M2,2 L2,16 L12,16 L12,2 L2,2 Z M1,0 L13,0 C13.5522847,-1.01453063e-16 14,0.44771525 14,1 L14,17 C14,17.5522847 13.5522847,18 13,18 L1,18 C0.44771525,18 6.76353751e-17,17.5522847 0,17 L0,1 C-6.76353751e-17,0.44771525 0.44771525,1.01453063e-16 1,0 Z" id="Rectangle" fill-rule="nonzero"></path>
                <path d="M5,5 L5,10 L9,10 L9,5 L5,5 Z M11,3 L11,12 L3,12 L3,3 L11,3 Z" id="Shape" fill-rule="nonzero"></path>
                <rect id="Rectangle-2" x="5" y="13" width="4" height="2" rx="1"></rect>
            </g>
        </g>
    </g>
</svg>