<?xml version="1.0" encoding="UTF-8"?>
<svg width="16px" height="16px" viewBox="0 0 16 16" version="1.1" xmlns="http://www.w3.org/2000/svg" xmlns:xlink="http://www.w3.org/1999/xlink">
    <!-- Generator: sketchtool 50.2 (55047) - http://www.bohemiancoding.com/sketch -->
    <title>4DCE509A-2747-4268-8464-B53E2F4A0DA1</title>
    <desc>Created with sketchtool.</desc>
    <defs>
        <path d="M12,1 C12,0.4 11.6,0 11,0 L5,0 C4.4,0 4,0.4 4,1 L4,3 L0,3 L0,5 L1,5 L1,15 C1,15.6 1.4,16 2,16 L14,16 C14.6,16 15,15.6 15,15 L15,5 L16,5 L16,3 L12,3 L12,1 Z M6,2 L10,2 L10,3 L6,3 L6,2 Z M13,5 L13,14 L3,14 L3,5 L13,5 Z" id="path-1"></path>
        <path d="M0,0 L2,0 L2,5 L0,5 L0,0 Z M4,0 L6,0 L6,5 L4,5 L4,0 Z" id="path-3"></path>
    </defs>
    <g id="Page-1" stroke="none" stroke-width="1" fill="none" fill-rule="evenodd">
        <g id="ðŸ–¥-Icons" transform="translate(-100.000000, -867.000000)">
            <g id="Sidebar" transform="translate(46.000000, 534.000000)">
                <g id="âš›ï¸/icon/16/trash" transform="translate(54.000000, 333.000000)">
                    <g id="icon">
                        <mask id="mask-2" fill="white">
                            <use xlink:href="#path-1"></use>
                        </mask>
                        <use id="Mask" fill="#111111" fill-rule="nonzero" xlink:href="#path-1"></use>
                        <g id="âš›ï¸/ðŸŒˆ/Dark-400" mask="url(#mask-2)" fill="#697586">
                            <g transform="translate(-8.000000, -11.000000)" id="Rectangle">
                                <rect x="0" y="0" width="40" height="40"></rect>
                            </g>
                        </g>
                    </g>
                    <g id="icon" transform="translate(5.000000, 7.000000)">
                        <mask id="mask-4" fill="white">
                            <use xlink:href="#path-3"></use>
                        </mask>
                        <use id="Mask" fill="#111111" xlink:href="#path-3"></use>
                        <g id="âš›ï¸/ðŸŒˆ/Dark-400" mask="url(#mask-4)" fill="#697586">
                            <g transform="translate(-13.000000, -18.000000)" id="Rectangle">
                                <rect x="0" y="0" width="40" height="40"></rect>
                            </g>
                        </g>
                    </g>
                </g>
            </g>
        </g>
    </g>
</svg>